<?xml version="1.0" encoding="utf-8"?>
<!-- Generator: Adobe Illustrator 27.3.1, SVG Export Plug-In . SVG Version: 6.00 Build 0)  -->
<svg version="1.1" id="Capa_1" xmlns="http://www.w3.org/2000/svg" xmlns:xlink="http://www.w3.org/1999/xlink" x="0px" y="0px"
	 viewBox="0 0 595.28 841.89" style="enable-background:new 0 0 595.28 841.89;" xml:space="preserve">
<style type="text/css">
	.st0{fill:none;stroke:#F7BD94;stroke-width:0;stroke-miterlimit:10;}
	.st1{fill:none;stroke:#D1A532;stroke-width:0;stroke-miterlimit:10;}
	.st2{fill:none;stroke:#F43F15;stroke-width:0;stroke-miterlimit:10;}
	.st3{fill:none;stroke:#939295;stroke-width:0;stroke-miterlimit:10;}
	.st4{fill:none;stroke:#D8BA35;stroke-width:0;stroke-miterlimit:10;}
	.st5{fill:#B3CE3B;}
	.st6{fill:#EF7B29;}
	.st7{fill:#F80200;}
	.st8{fill:#1C8AE0;}
	.st9{fill:#26242A;}
	.st10{fill:#FCA62E;}
	.st11{fill:#DE2128;}
</style>
<line class="st0" x1="284.12" y1="216.99" x2="300.61" y2="230.64"/>
<line class="st1" x1="285.37" y1="215.78" x2="284.12" y2="216.99"/>
<path class="st2" d="M302.64,229.7c-0.23,0.6-0.91,0.92-2.03,0.94"/>
<path class="st3" d="M265.64,262.12c0.06-3-2.35-5.53-5.4-5.59c-3.05-0.07-5.57,2.32-5.63,5.32c-0.06,3,2.35,5.53,5.4,5.59
	C263.06,267.51,265.57,265.13,265.64,262.12"/>
<path class="st4" d="M238.88,289.42c-0.22-0.25-0.56-0.25-0.78-0.01l-23.82,25.22c-0.22,0.24-0.22,0.61-0.01,0.84l0.06,0.07
	c0.22,0.25,0.56,0.25,0.78,0.01l23.82-25.22c0.22-0.24,0.22-0.61,0.01-0.84L238.88,289.42"/>
<path class="st5" d="M279.73,218.83L279.73,218.83c-0.77,0.75-1.89,1.01-2.91,0.69l-16.42-5.21c-2.39-0.76-2.41-1.63-0.11-2.64
	c14.06-6.13,33.77-21.18,37.32-38.82c0.17-0.8,1.1-1.06,1.59-0.44c0.32,0.39,0.53,0.85,0.59,1.35c1.27,8.88,1.06,18.08-0.63,27.55
	c-1.01,5.75-7.9,11.76-13.32,15.03C283.13,217.99,279.81,218.47,279.73,218.83L279.73,218.83z"/>
<path class="st6" d="M298.14,231.94c-0.19,0.61-0.85,0.97-1.97,1.07l-19.01-13.01c0,0,4.8-2.29,7.82-4.69
	c10.45-8.33,34.2-28.56,39.34-43.16c1.64-4.63,2.66-4.47,3.1,0.47c0.8,9.1,0.7,18.32-0.3,27.7c-0.4,3.7-1.9,6.79-4.51,9.22
	c-7.71,7.2-14.1,14.56-21.91,20.13C300.57,229.74,296.37,233.64,298.14,231.94L298.14,231.94z"/>
<path class="st7" d="M295.65,233.36c1.11-0.12,48.43-39.36,53.86-63.86c0.14-0.63,0.88-0.81,1.27-0.3c0.39,0.52,0.59,1.1,0.62,1.76
	c1.68,35-14.03,62.73-40.28,81.41c-1,0.71-2.36,0.46-3.07-0.61L295.65,233.36L295.65,233.36z"/>
<path class="st8" d="M258.04,348.33c-1.88-2.34-2.9-11.25-3.29-12.04c-0.27-0.55-2.61-2.45-2.94-2.99c-0.4-0.64-2.14-1.52-2.14-2.28
	l0.31-15.11c-0.02-1.24,1.93-1.84,3.07-1.86c14.86-0.11,25.75-6.58,32.71-19.39c10.66-19.62,2.79-45.56-16.43-54.47
	c-11.14-5.16-21.88-4.5-32.22,2c-11.48,7.2-16.2,18.86-17.66,32.76c-0.13,1.26-1.12,2.2-2.3,2.18l-18.56-0.41
	c-1.61-0.05-2.33-0.94-2.18-2.66c0.87-9.82,2.81-17.92,5.86-24.27c22.67-47.42,89.36-43,105.26,8.08c2.05,6.58,3.02,16.13,2.9,28.59
	c-0.34,32.14-0.38,64.13-0.13,95.92c0.02,1.26-0.97,2.27-2.14,2.18C285,382.66,268.3,370.59,258.04,348.33L258.04,348.33z"/>
<path class="st9" d="M265.64,262.12c-0.06,3.01-2.58,5.39-5.63,5.32c-3.06-0.07-5.47-2.59-5.4-5.59c0.06-3.01,2.58-5.39,5.63-5.32
	C263.29,256.59,265.7,259.12,265.64,262.12L265.64,262.12z"/>
<path class="st10" d="M249.65,329.58c-0.04,1.65-1.25,3.01-2.79,3.07c-13.17,0.62-24.61-3.17-34.34-11.4
	c-6.64-5.62-11.04-11.72-13.19-18.33c-2.66-8.14-3.55-16.54-2.64-25.15c0.19-1.79,8.58-1.26,11.48-1.47
	c1.28-0.09,2.56-0.17,3.84-0.25c12.02-0.73,23.69-0.88,35.01-0.46c2.09,0.07,3.72,1.97,3.68,4.24L249.65,329.58 M248.77,276.11
	c-0.34-0.39-0.87-0.39-1.2-0.02l-36.9,39.72c-0.33,0.38-0.33,0.95-0.01,1.33l0.09,0.1c0.34,0.39,0.87,0.39,1.2,0.02l36.9-39.72
	c0.33-0.38,0.33-0.95,0.01-1.33L248.77,276.11L248.77,276.11z"/>
<path class="st11" d="M253.83,345.08c1.14-0.34,2.01,0.64,2.62,2.96c8.58,23.65,29.39,38.41,52.5,40.06
	c1.14,0.07,2.03,1.1,2.03,2.34l-0.02,19.43c0,0.89-0.68,1.58-1.5,1.54C276.56,409.39,252.14,381.26,253.83,345.08L253.83,345.08z"/>
</svg>
