<svg width="48" height="30" viewBox="0 0 48 30" fill="none" xmlns="http://www.w3.org/2000/svg">
<g clip-path="url(#clip0_307_1329)">
<path d="M44.3298 4.41151C44.3298 4.44532 44.3298 4.48759 44.321 4.51295C44.2769 4.84263 44.2769 5.17232 44.3033 5.51046C44.321 5.59499 44.3386 5.67953 44.4091 5.74716C44.5235 5.87395 44.6997 5.8486 44.7702 5.69643C44.8054 5.62035 44.8054 5.54427 44.7878 5.46819C44.6997 5.14696 44.6821 4.80882 44.6733 4.47913C44.6733 4.46223 44.6733 4.43686 44.6733 4.41151C44.7702 4.40305 44.8583 4.3946 44.9375 4.3946C44.9992 4.38615 45.052 4.37769 45.0961 4.35233C45.2281 4.28471 45.2281 4.141 45.0872 4.07337C45.0344 4.04801 44.9639 4.03955 44.9023 4.03955C44.6821 4.04801 44.4619 4.04801 44.2417 4.04801C44.1624 4.04801 44.0832 4.05646 44.0039 4.06491C43.9598 4.07337 43.907 4.07337 43.8718 4.09873C43.8101 4.12409 43.7749 4.16635 43.7749 4.22553C43.7837 4.28471 43.8101 4.31852 43.8718 4.34388C43.907 4.36924 43.951 4.37769 43.9951 4.37769C44.1007 4.38615 44.2153 4.40305 44.3298 4.41151ZM46.7519 4.80037C46.7519 4.80882 46.7607 4.81727 46.7607 4.81727C46.7959 5.04551 46.8312 5.26531 46.8576 5.4851C46.8664 5.56117 46.8752 5.6288 46.9281 5.68798C47.0425 5.83168 47.2187 5.81478 47.298 5.66262C47.3332 5.58654 47.342 5.51046 47.3244 5.42592C47.2716 5.17232 47.2451 4.91871 47.1923 4.67356C47.157 4.5214 47.113 4.37769 47.069 4.24244C47.0425 4.1579 46.9809 4.09872 46.8752 4.09027C46.7695 4.07337 46.6902 4.12409 46.6462 4.20017C46.5934 4.26779 46.5493 4.33542 46.5141 4.41151C46.4524 4.54676 46.3996 4.68202 46.3292 4.80882C46.3203 4.84263 46.3115 4.86799 46.2939 4.89335C46.2851 4.87644 46.2763 4.86799 46.2763 4.86799C46.1618 4.65666 46.0561 4.44532 45.9416 4.24244C45.9239 4.22553 45.9151 4.20862 45.9064 4.19171C45.8535 4.11564 45.7919 4.07337 45.695 4.07337C45.6069 4.08182 45.5364 4.13254 45.4924 4.20862C45.4748 4.24244 45.4748 4.26779 45.466 4.30161C45.4307 4.57212 45.3867 4.84263 45.3515 5.11314C45.3338 5.26531 45.325 5.41747 45.325 5.56963C45.3162 5.60344 45.325 5.64571 45.3426 5.67953C45.3603 5.74715 45.4131 5.78942 45.4836 5.79787C45.5716 5.80633 45.6333 5.78097 45.6597 5.71334C45.6861 5.66262 45.695 5.62035 45.7038 5.57809C45.739 5.42592 45.7654 5.28221 45.7919 5.13851C45.8095 5.05397 45.8183 4.98634 45.8447 4.89335C45.8623 4.92717 45.8799 4.95253 45.8976 4.97789C45.9768 5.07933 46.0561 5.18077 46.153 5.26531C46.2499 5.33293 46.3291 5.32448 46.4084 5.2484C46.426 5.23149 46.4348 5.22304 46.4524 5.20613C46.5317 5.08778 46.6286 4.96944 46.7078 4.85108C46.7255 4.83418 46.7343 4.81727 46.7519 4.80037Z" fill="#3A3B7B"/>
<path d="M26.4577 4.5776C26.3965 4.73826 26.3848 4.854 26.413 4.9502C26.4443 5.08102 26.5253 5.12384 26.6353 5.09057C27.6698 4.84504 29.9384 5.54196 30.7783 5.73621C30.9763 5.77699 31.1375 5.53158 31.0023 5.31155C30.8051 5.09846 28.5375 4.18617 27.6723 4.13643C27.3332 4.11803 26.7269 4.03456 26.4577 4.5776Z" fill="#3A3B7B"/>
<path d="M35.3236 1.62435C35.4339 1.68543 35.4955 1.7437 35.5259 1.80879C35.5712 1.89419 35.5473 1.95327 35.4712 1.98341C34.7873 2.30374 33.8773 3.68283 33.51 4.15847C33.421 4.26788 33.2156 4.2043 33.1846 4.02437C33.1909 3.82092 33.9976 2.3243 34.4478 1.91667C34.6247 1.75752 34.917 1.44525 35.3236 1.62435Z" fill="#3A3B7B"/>
<path d="M29.8777 0.945531C30.0102 0.849714 30.1478 0.816137 30.2181 0.878406C31.2499 1.7253 31.7971 3.06644 32.1359 4.29422C32.1486 4.32283 32.1494 4.36388 32.1392 4.4067C32.135 4.4433 32.1071 4.48196 32.0629 4.51187C32.0156 4.5449 31.9749 4.55496 31.9558 4.5265C31.5036 3.93617 28.9208 1.63931 29.8777 0.945531Z" fill="#3A3B7B"/>
<path d="M8.0285 15.6286C8.27578 15.4519 8.54462 15.3048 8.82911 15.1906C9.12675 15.109 9.444 15.1225 9.73292 15.2293C10.0218 15.336 10.2666 15.5301 10.4303 15.7823C10.5768 16.0338 10.634 16.3242 10.5936 16.6097C10.5532 16.8952 10.4172 17.1603 10.2061 17.3652C10.0425 17.5313 9.85673 17.676 9.65376 17.7956C8.74907 18.3565 7.83633 18.8867 6.92364 19.4476C6.73688 19.588 6.53876 19.714 6.33118 19.8242C6.01542 19.9753 5.65457 20.0158 5.31101 19.9386C4.96745 19.8615 4.6628 19.6715 4.44973 19.4016C4.29044 19.2104 4.15602 19.0014 4.04941 18.7791C3.18475 17.0348 2.28806 15.2982 1.45542 13.5231C1.07112 12.7548 0.758879 11.8711 0.454645 11.0181C0.323019 10.7703 0.297315 10.483 0.383007 10.2173C0.468699 9.95152 0.659026 9.72836 0.913501 9.59522C1.16798 9.46208 1.46652 9.42952 1.74565 9.5044C2.02478 9.57927 2.26246 9.75571 2.40815 9.99614C2.85596 10.5673 3.25236 11.174 3.59306 11.8096C4.45773 13.3464 5.28237 14.8832 6.11501 16.374C6.16349 16.4564 6.21695 16.5358 6.27513 16.6122C6.90184 16.3593 7.49129 16.0286 8.0285 15.6286Z" fill="#3A3B7B"/>
<path d="M16.9686 15.0925C14.9911 17.3132 11.6765 16.7522 10.0113 13.8937C8.82633 11.8651 8.61818 8.51481 11.1962 6.40168C11.7467 5.95928 12.405 5.65791 13.1096 5.52568C13.9736 5.4068 14.8547 5.5531 15.6268 5.94366C16.399 6.33422 17.0227 6.94906 17.409 7.70031C18.8181 10.1592 18.6179 13.2943 16.9686 15.0925ZM16.168 9.91334C15.9579 9.30908 15.5364 8.79321 14.9751 8.45332C14.6574 8.23602 14.2714 8.13037 13.8821 8.15416C13.4928 8.17795 13.1239 8.32974 12.8374 8.58395C11.6926 9.55987 11.4524 11.8728 12.285 13.2483C12.3911 13.4726 12.547 13.6719 12.7418 13.8323C12.9365 13.9927 13.1655 14.1104 13.4126 14.1769C13.6597 14.2436 13.9189 14.2575 14.1722 14.2179C14.4256 14.1782 14.6667 14.086 14.8791 13.9475C15.4997 13.4857 15.955 12.8498 16.1816 12.1282C16.4084 11.4066 16.3952 10.6351 16.144 9.92105L16.168 9.91334Z" fill="#3A3B7B"/>
<path d="M25.0388 10.8816C24.8364 10.9234 24.6272 10.9259 24.4237 10.8889C24.2202 10.8519 24.0265 10.7763 23.8539 10.6665C23.7029 10.5836 23.5729 10.4696 23.4733 10.3327C23.3737 10.1958 23.307 10.0395 23.2779 9.87484C23.2488 9.71026 23.2581 9.54154 23.305 9.38078C23.352 9.22003 23.4356 9.07127 23.5497 8.94519C23.7484 8.69184 24.0306 8.51045 24.3503 8.43037C25.1851 8.19785 26.0445 8.05608 26.9123 8.00776C27.103 7.98648 27.2961 8.00196 27.4804 8.05331C27.6648 8.10472 27.8366 8.19086 27.9858 8.30686C28.1349 8.42279 28.2584 8.56621 28.3491 8.72861C28.4396 8.89101 28.4956 9.06916 28.5135 9.25259C28.7637 10.1536 28.7911 11.0982 28.5935 12.0112C27.873 14.9619 25.3911 15.9762 22.6049 15.031C21.8228 14.7783 21.1371 14.3075 20.6354 13.6786C19.9663 12.9214 19.4918 12.0239 19.2503 11.0584C19.0547 10.1986 19.0761 9.30644 19.3129 8.45628C19.5497 7.60611 19.9949 6.82262 20.6114 6.17124C21.1965 5.46327 21.9559 4.90609 22.8211 4.54988C23.3679 4.26064 24.0077 4.1784 24.6145 4.31936C24.7522 4.35593 24.8771 4.42717 24.9764 4.52571C25.0757 4.62426 25.1457 4.7465 25.1793 4.87978C25.2128 5.01305 25.2085 5.15249 25.1669 5.28365C25.1253 5.4148 25.0479 5.53289 24.9428 5.62567C24.7428 5.79937 24.5256 5.95379 24.2942 6.08671C23.5825 6.52176 22.9631 7.08235 22.4688 7.73879C22.1449 8.16357 21.9217 8.65137 21.8153 9.16776C21.7087 9.68416 21.7214 10.2167 21.8524 10.728C22.0339 11.425 22.4369 12.0507 23.0052 12.5183C24.7666 14.0552 27.0564 12.5721 26.6561 10.4743C26.0716 10.6127 25.5592 10.7587 25.0388 10.8816Z" fill="#3A3B7B"/>
<path d="M35.7993 15.2154C33.1973 16.7523 30.235 15.2154 29.5865 11.9881C29.1141 9.68291 30.0108 6.45555 33.1493 5.22609C33.817 4.97013 34.5413 4.88026 35.2549 4.96483C36.1122 5.11546 36.8987 5.52056 37.5034 6.12301C38.1081 6.72546 38.5006 7.49486 38.6254 8.32281C39.1539 11.066 37.9529 13.9937 35.7993 15.2154ZM36.704 10.044C36.7032 9.40569 36.4679 8.78799 36.0395 8.29974C35.8105 7.99774 35.4794 7.78136 35.1027 7.68744C34.726 7.59359 34.3271 7.62799 33.9738 7.78492C32.5648 8.36888 31.572 10.4897 31.9323 12.0496C31.9598 12.2944 32.0427 12.5305 32.1752 12.7414C32.3076 12.9522 32.4865 13.1327 32.6993 13.2703C32.912 13.4079 33.1535 13.4992 33.4068 13.5379C33.6602 13.5766 33.9193 13.5617 34.166 13.4942C34.9108 13.2445 35.5557 12.7778 36.0107 12.1592C36.4657 11.5407 36.7081 10.8012 36.704 10.044Z" fill="#3A3B7B"/>
<path d="M41.2568 15.8609C41.2175 16.1421 41.0635 16.3969 40.8285 16.5691C40.5935 16.7413 40.2969 16.8169 40.0038 16.7792C39.7108 16.7415 39.4454 16.5936 39.266 16.368C39.0865 16.1425 39.0078 15.8578 39.0471 15.5766C39.0864 15.2953 39.2405 15.0406 39.4754 14.8684C39.7104 14.6962 40.0071 14.6206 40.3001 14.6583C40.5931 14.696 40.8585 14.8439 41.038 15.0694C41.2174 15.295 41.2961 15.5797 41.2568 15.8609ZM40.5603 5.49498C40.7125 5.27178 40.9359 5.1018 41.1971 5.01041C41.4582 4.91901 41.7432 4.91109 42.0094 4.98783C42.28 5.05282 42.5191 5.20508 42.6868 5.4191C42.8544 5.63313 42.9403 5.89593 42.9301 6.1635C42.8948 6.59268 42.8279 7.01893 42.73 7.43905C42.4658 8.86064 42.2095 10.2822 41.9294 11.6884C41.8013 12.2494 41.6331 12.7872 41.449 13.3558C41.3849 13.5336 41.2779 13.6942 41.1367 13.8246C41.049 13.9227 40.9369 13.9979 40.8108 14.0433C40.6847 14.0888 40.5488 14.1029 40.4155 14.0845C40.2822 14.0661 40.1558 14.0158 40.0482 13.9381C39.9406 13.8604 39.8551 13.758 39.7997 13.6402C39.7045 13.4289 39.6528 13.2018 39.6476 12.9717C39.6476 12.0188 39.6476 11.0583 39.7116 10.0978C39.8205 8.72698 40.0345 7.36575 40.3521 6.02518C40.3895 5.84558 40.4599 5.67383 40.5603 5.51803V5.49498Z" fill="#3A3B7B"/>
<path fill-rule="evenodd" clip-rule="evenodd" d="M4.64588 22.0357C4.55135 22.2383 4.52543 22.4641 4.57162 22.6814C4.60236 22.9678 4.66986 23.2496 4.77258 23.5202C4.90084 23.8516 5.04436 24.1793 5.22132 24.5832C5.26201 24.6761 5.30454 24.7731 5.34905 24.8752C5.58768 25.4224 5.88711 26.1217 6.28651 27.1337C6.39956 27.4212 6.49995 27.7111 6.60104 28.003C6.64187 28.1209 6.68286 28.2392 6.72481 28.3577C6.87518 28.7793 7.13392 29.158 7.47689 29.4582C7.62252 29.6231 7.81569 29.7434 8.03229 29.8035C8.25313 29.8648 8.48799 29.8609 8.70648 29.7923C8.92496 29.7237 9.11685 29.5936 9.25725 29.4189C9.39489 29.2476 9.47674 29.0412 9.49265 28.8255C9.58195 28.4054 9.55147 27.9698 9.40429 27.5648C9.1707 26.8923 8.90462 26.2189 8.59777 25.5602L8.59636 25.5573C8.09158 24.5267 7.57848 23.5033 7.04109 22.4794L7.03707 22.4723C6.87975 22.2055 6.67531 21.9671 6.43293 21.7676C6.27557 21.5896 6.05852 21.4695 5.81882 21.4281C5.57401 21.3859 5.32152 21.4285 5.10644 21.5483C4.90297 21.6599 4.74168 21.8305 4.64588 22.0357Z" fill="#3A3B7B"/>
<path fill-rule="evenodd" clip-rule="evenodd" d="M12.3556 19.4981C11.5641 19.3014 10.7375 19.2727 9.93344 19.4142C9.31062 19.473 8.69807 19.6109 8.27272 19.884C8.05639 20.023 7.88148 20.2015 7.78419 20.4284C7.68637 20.6565 7.67388 20.9173 7.75405 21.208C7.90042 21.7404 8.0905 22.2581 8.27991 22.7741L8.31059 22.8576L8.31133 22.8595C8.88164 24.3585 9.45739 25.8525 10.0384 27.3413C10.1061 27.5759 10.2019 27.8023 10.3239 28.0158L10.3262 28.0197C10.4872 28.2849 10.6938 28.5221 10.9372 28.7214C11.059 28.8309 11.2095 28.9067 11.3727 28.9406C11.5375 28.9747 11.709 28.9648 11.8683 28.9119C12.0277 28.8589 12.1688 28.765 12.2764 28.6403C12.3822 28.5176 12.4515 28.3699 12.4769 28.2126C12.582 27.7854 12.5483 27.3375 12.3805 26.9292C12.3281 26.7918 12.287 26.6513 12.2437 26.5035C12.2293 26.4542 12.2146 26.404 12.1992 26.3529C13.5291 25.854 14.9441 25.1831 15.4417 23.6224C15.6366 23.083 15.6528 22.499 15.4882 21.9504C15.3234 21.4012 14.9853 20.9144 14.5206 20.557C13.888 20.0568 13.1491 19.6953 12.3556 19.4981ZM10.1617 21.4125C10.1879 21.4052 10.2143 21.3985 10.2407 21.3922C11.1066 21.2616 11.9924 21.4357 12.7351 21.8823C13.0624 22.1007 13.1965 22.3435 13.2195 22.5771C13.2433 22.8176 13.1522 23.0782 12.9692 23.3287C12.6233 23.8019 11.9922 24.1807 11.4221 24.2513C11.0064 23.3326 10.5844 22.3768 10.1617 21.4125Z" fill="#3A3B7B"/>
<path d="M17.6324 17.8165C18.5749 17.3988 19.7425 17.3266 20.6561 17.6203C20.8862 17.6847 21.0858 17.8238 21.2208 18.0139C21.355 18.2029 21.4169 18.4306 21.3962 18.6583C21.3948 18.806 21.357 18.9514 21.2859 19.0826C21.2136 19.2161 21.1087 19.3309 20.9804 19.4174C20.852 19.5038 20.7038 19.5594 20.5484 19.5792C20.3929 19.5991 20.2347 19.5828 20.0872 19.5316L20.076 19.5277L20.0655 19.5223C19.99 19.4844 19.9098 19.4559 19.8269 19.4373L19.8217 19.4362C19.179 19.2724 18.5728 19.5438 18.3513 19.8774C18.2457 20.0364 18.2326 20.197 18.3206 20.343C18.4148 20.4994 18.6458 20.675 19.1133 20.8001C19.2419 20.8339 19.3737 20.8666 19.5074 20.8998C19.8771 20.9917 20.2613 21.0872 20.6328 21.2194L20.6342 21.22C22.3481 21.8458 22.9863 23.1421 22.7678 24.3613C22.5516 25.5669 21.5025 26.6642 19.9249 26.923C19.3508 27.0451 18.7534 27.0213 18.1917 26.854C17.6287 26.6861 17.1211 26.3799 16.7195 25.9654L16.7091 25.9546C16.5823 25.7985 16.497 25.615 16.4592 25.4204C16.4245 25.2448 16.4428 25.0633 16.5119 24.8972C16.5807 24.7322 16.697 24.5894 16.847 24.4853C17.0056 24.3673 17.1967 24.2965 17.3967 24.2818C17.596 24.2671 17.7955 24.3087 17.9706 24.4013C18.1454 24.4824 18.308 24.5858 18.454 24.7088L18.4567 24.711C18.715 24.9377 19.0274 24.9968 19.327 24.942C19.6309 24.8866 19.9168 24.7139 20.1006 24.4849C20.2832 24.2573 20.3565 23.987 20.2695 23.7245C20.182 23.4601 19.9187 23.164 19.3403 22.9163C19.1891 22.8547 19.0323 22.805 18.8692 22.7566C18.8252 22.7436 18.7805 22.7306 18.7352 22.7174C18.6147 22.6823 18.4906 22.6461 18.3689 22.6062C18.2851 22.5788 18.202 22.5528 18.1197 22.5271C17.8947 22.4567 17.6753 22.3882 17.4642 22.2963C17.0048 22.1461 16.6078 21.8578 16.3325 21.474C16.056 21.0887 15.9169 20.628 15.9358 20.1605C15.9373 19.0214 16.6848 18.2367 17.6324 17.8165Z" fill="#3A3B7B"/>
<path d="M29.582 17.6953C29.3992 17.6096 29.1971 17.5689 28.994 17.5769C28.7907 17.585 28.5928 17.6414 28.418 17.7412C28.2443 17.8403 28.0989 17.9792 27.9947 18.1453C27.8991 18.2852 27.833 18.4417 27.8 18.606C27.7671 18.7702 27.7679 18.9389 27.8023 19.1027C27.8364 19.3132 27.8741 19.5179 27.9114 19.7198C27.9731 20.0539 28.0331 20.3805 28.0727 20.7135L28.0742 20.7219C28.1644 21.2441 28.2116 21.7722 28.2158 22.3015L28.2162 22.309C28.247 22.8805 28.0441 23.441 27.651 23.8714L27.6447 23.879C27.5168 24.0363 27.3458 24.1564 27.1508 24.2258C26.9558 24.2952 26.7445 24.3112 26.5406 24.2719C26.3367 24.2326 26.1483 24.1397 25.9962 24.0034C25.8442 23.8672 25.7346 23.6925 25.6799 23.5C25.563 23.0942 25.4954 22.6768 25.4782 22.2562L25.6778 19.207C25.6807 19.1672 25.6841 19.1264 25.6875 19.0851C25.6951 18.9925 25.7029 18.8982 25.7061 18.8102C25.7108 18.6808 25.7068 18.5476 25.6754 18.4216C25.6432 18.2928 25.582 18.1703 25.4735 18.066C25.3661 17.9627 25.2211 17.8865 25.0386 17.8346C24.7086 17.7429 24.4295 17.7458 24.197 17.8405C23.9644 17.9353 23.805 18.1111 23.6922 18.3142C23.5802 18.5157 23.5083 18.7541 23.4539 18.993C23.4136 19.1702 23.3812 19.3563 23.3503 19.5334C23.3397 19.5944 23.3293 19.6543 23.3187 19.7125L23.3184 19.7142C23.1535 20.6854 23.1045 21.6716 23.1721 22.6535C23.1848 23.1841 23.3001 23.7079 23.5122 24.1981C23.7516 24.8305 24.1851 25.3785 24.7556 25.7697C25.3274 26.1616 26.0096 26.3776 26.712 26.389C27.4145 26.4004 28.104 26.2067 28.6892 25.8336C29.2735 25.461 29.7263 24.927 29.9877 24.3023C30.3535 23.5064 30.5252 22.6409 30.4898 21.7717C30.4683 21.1371 30.4323 20.4977 30.3965 19.8615C30.3789 19.5494 30.3614 19.238 30.3457 18.9284C30.3378 18.6181 30.2311 18.3175 30.0401 18.0669C29.9218 17.9086 29.7644 17.7808 29.582 17.6953Z" fill="#3A3B7B"/>
<path d="M36.0506 22.4764C36.0321 22.499 36.0125 22.5224 35.9921 22.5467C35.8435 21.7236 35.7057 20.9008 35.5677 20.0768C35.5182 19.7811 35.4685 19.4842 35.4185 19.1881L35.4128 19.1551L35.3946 19.1266C35.3601 19.0728 35.3567 19.0202 35.3567 18.9079V18.8949L35.3546 18.882C35.3173 18.6501 35.208 18.4342 35.041 18.2627C34.8745 18.0917 34.6582 17.9727 34.4203 17.921C34.1828 17.8648 33.9333 17.8772 33.703 17.9567C33.4734 18.036 33.2733 18.1784 33.1276 18.3663C33.0064 18.5104 32.9071 18.6703 32.8327 18.8412C32.6639 19.2092 32.4935 19.5782 32.3227 19.9481L32.3198 19.9545C31.8933 20.8781 31.464 21.8079 31.0472 22.745L31.0459 22.748C30.79 23.3556 30.5788 23.9958 30.3683 24.6341C30.3263 24.7615 30.2843 24.8889 30.2419 25.0159C30.1659 25.2173 30.1326 25.4312 30.1441 25.6451C30.1302 25.8366 30.178 26.0276 30.281 26.1923C30.386 26.3603 30.5433 26.4926 30.7307 26.5704C30.9293 26.654 31.1513 26.6717 31.3617 26.6208C31.5716 26.57 31.758 26.4537 31.8915 26.2903C32.0621 26.0889 32.2088 25.8693 32.3284 25.6367C32.6815 24.9434 33.019 24.2418 33.3549 23.5431C33.4849 23.2729 33.6112 23.0309 33.7549 22.7673C33.7647 22.7998 33.7748 22.8315 33.7852 22.8633C33.9358 23.4996 34.19 24.1091 34.5384 24.6695C34.6044 24.7882 34.6962 24.8919 34.8077 24.9736C34.9205 25.0563 35.0507 25.1143 35.1892 25.1437C35.3277 25.1732 35.4712 25.1733 35.6098 25.1441C35.7482 25.115 35.8788 25.0569 35.9917 24.9747L36.2151 24.8142L37.9489 23.4125L37.8464 24.0396C37.7056 24.9016 37.566 25.7565 37.4176 26.6115C37.3205 26.9905 37.3206 27.3863 37.418 27.7652C37.4601 27.9784 37.5676 28.1747 37.7266 28.329C37.8869 28.4847 38.0922 28.5904 38.316 28.6326C38.5397 28.6747 38.7714 28.6513 38.9811 28.5655C39.1878 28.4809 39.3636 28.3395 39.4865 28.1592C39.7723 27.8188 39.9503 27.4066 39.9992 26.9718C40.0727 26.3578 40.1559 25.7355 40.2391 25.1133C40.3349 24.3961 40.4307 23.6792 40.5116 22.976L40.5119 22.9738C40.5897 22.204 40.6274 21.4311 40.6248 20.6578C40.6418 20.4134 40.5785 20.1699 40.4434 19.9618C40.3078 19.753 40.1071 19.5907 39.8698 19.4978C39.623 19.3901 39.3467 19.3613 39.0815 19.4158C38.8181 19.4698 38.5797 19.6031 38.4008 19.7961C38.081 20.08 37.781 20.3838 37.5027 20.7055L37.5008 20.7076C37.197 21.071 36.8953 21.4415 36.5955 21.8096C36.4132 22.0333 36.2314 22.2566 36.0506 22.4764Z" fill="#3A3B7B"/>
</g>
<defs>
<clipPath id="clip0_307_1329">
<rect width="47" height="29" fill="white" transform="translate(0.333252 0.846802)"/>
</clipPath>
</defs>
</svg>
