<svg width="65" height="224" viewBox="0 0 65 224" fill="none" xmlns="http://www.w3.org/2000/svg">
<g clip-path="url(#clip0_305_970)">
<path d="M44.0254 224L65 224L54.5127 210.177L44.0254 224Z" fill="#0052EA"/>
<path d="M44.0254 177.158L65 177.158L54.5127 163.336L44.0254 177.158Z" fill="#0052EA"/>
<path d="M44.0254 130.297L65 130.297L54.5127 116.474L44.0254 130.297Z" fill="#0052EA"/>
<path d="M44.0254 83.4557L65 83.4557L54.5127 69.633L44.0254 83.4557Z" fill="#0052EA"/>
<path d="M44.0254 36.6141L65 36.6141L54.5127 22.7714L44.0254 36.6141Z" fill="#0052EA"/>
<path d="M0.000305176 201.228L20.9749 201.228L10.4876 187.406L0.000305176 201.228Z" fill="#0052EA"/>
<path d="M0.00012207 154.367L20.9747 154.367L10.4874 140.544L0.00012207 154.367Z" fill="#0052EA"/>
<path d="M0.00012207 107.526L20.9747 107.526L10.4874 93.7028L0.00012207 107.526Z" fill="#0052EA"/>
<path d="M0.00012207 60.6841L20.9747 60.6841L10.4874 46.8614L0.00012207 60.6841Z" fill="#0052EA"/>
<path d="M0.00012207 13.8226L20.9747 13.8226L10.4874 -8.58675e-05L0.00012207 13.8226Z" fill="#0052EA"/>
</g>
<defs>
<clipPath id="clip0_305_970">
<rect width="65" height="224" fill="white" transform="translate(65 224) rotate(180)"/>
</clipPath>
</defs>
</svg>
