<svg width="442" height="434" viewBox="0 0 442 434" fill="none" xmlns="http://www.w3.org/2000/svg">
<path d="M376.836 433.13C376.836 433.275 305.068 433.399 216.567 433.399C128.066 433.399 56.2672 433.275 56.2672 433.13C56.2672 432.986 128.025 432.862 216.567 432.862C305.109 432.862 376.836 432.996 376.836 433.13Z" fill="#263238"/>
<path d="M306.908 306.606C290.94 295.454 287.322 274.753 287.953 256.139C288.056 253.038 287.715 249.752 289.193 247.034C290.671 244.315 294.123 242.445 296.903 243.747C299.208 244.832 300.211 247.519 301.502 249.741C303.226 252.701 305.752 255.112 308.789 256.697C310.763 257.731 313.212 258.351 315.166 257.276C317.853 255.798 318.163 252.108 318.142 249.008C318.142 243.24 318.108 237.48 318.039 231.727C317.853 228.638 318.167 225.539 318.969 222.549C319.93 219.614 322.07 216.896 324.994 216.069C327.919 215.242 331.568 216.948 332.229 219.965C332.343 221.244 332.374 222.528 332.322 223.81C332.405 225.102 333.004 226.518 334.214 226.911C335.423 227.303 336.684 226.404 337.614 225.495C340.797 222.394 342.968 218.353 344.983 214.364C346.998 210.374 348.972 206.271 351.866 202.871C354.76 199.471 358.76 196.773 363.235 196.515C367.71 196.256 372.371 199.006 373.488 203.346C374.604 207.687 372.072 212.121 369.353 215.645C365.252 220.877 360.417 225.489 354.998 229.34C353.94 229.917 353.096 230.819 352.59 231.913C351.918 233.98 353.871 236.047 355.907 236.698C358.212 237.463 360.713 237.225 363.142 237.515C365.571 237.804 368.155 238.858 369.074 241.132C370.335 244.295 367.689 247.602 365.095 249.772C359.886 254.113 353.972 257.528 347.608 259.87C345.334 260.697 342.947 261.431 341.107 263.022C339.267 264.614 338.172 267.394 339.278 269.575C340.384 271.755 343.226 272.448 345.613 272.004C348.001 271.559 350.12 270.278 352.393 269.42C356.641 267.818 362.119 268.107 364.796 271.776C365.625 273.04 366.15 274.479 366.329 275.98C366.508 277.481 366.337 279.003 365.829 280.427C364.795 283.26 363.203 285.857 361.147 288.064C354.378 296.152 345.583 302.297 335.66 305.872C325.811 309.283 316.685 310.213 306.897 306.627" fill="#418DFF"/>
<path d="M368.94 199.068C368.94 199.068 368.847 199.171 368.64 199.357L367.721 200.173C366.914 200.897 365.726 201.951 364.227 203.346C359.978 207.291 356.033 211.551 352.424 216.09C350.12 218.953 347.732 222.198 345.19 225.722C342.647 229.246 340.022 233.05 337.418 237.091C334.641 241.352 332.098 245.762 329.8 250.299C328.602 252.666 327.547 255.136 326.462 257.658L323.258 265.358C319.035 275.057 315.357 284.984 312.241 295.092C309.731 303.364 308.001 311.851 307.073 320.445C306.472 326.244 306.375 332.085 306.784 337.901C306.949 339.968 307.104 341.549 307.249 342.624C307.311 343.141 307.352 343.555 307.394 343.854V344.278C307.349 344.144 307.318 344.005 307.301 343.865C307.249 343.565 307.187 343.162 307.104 342.645C306.918 341.611 306.722 339.979 306.536 337.911C306.037 332.085 306.072 326.224 306.639 320.404C307.509 311.773 309.202 303.246 311.693 294.937C314.783 284.8 318.451 274.848 322.679 265.131L325.966 257.462C327.051 254.95 328.116 252.459 329.325 250.082C331.639 245.531 334.202 241.111 337.004 236.843C339.65 232.709 342.316 228.967 344.828 225.474C347.339 221.981 349.768 218.715 352.063 215.862C355.708 211.336 359.706 207.106 364.021 203.212C365.55 201.837 366.77 200.804 367.597 200.111L368.558 199.336C368.676 199.234 368.804 199.144 368.94 199.068Z" fill="#263238"/>
<path d="M329.459 250.062C329.313 249.636 329.213 249.196 329.16 248.749C328.994 247.891 328.808 246.682 328.591 245.111C328.147 242.011 327.692 237.763 327.206 233.06C326.72 228.358 326.173 224.1 325.718 221.03C325.48 219.5 325.274 218.27 325.129 217.413C325.016 216.974 324.957 216.522 324.953 216.069C325.131 216.483 325.259 216.917 325.336 217.361C325.563 218.208 325.821 219.428 326.111 220.968C326.7 224.069 327.279 228.285 327.764 232.998C328.25 237.711 328.663 241.845 328.984 245.059C329.139 246.506 329.273 247.736 329.377 248.718C329.457 249.161 329.485 249.612 329.459 250.062Z" fill="#263238"/>
<path d="M369.229 242.641C368.726 242.751 368.214 242.813 367.7 242.827C366.666 242.92 365.199 243.044 363.38 243.251C359.742 243.644 354.739 244.367 349.251 245.401C343.763 246.434 338.833 247.602 335.288 248.501C333.521 248.956 332.095 249.369 331.154 249.648C330.652 249.827 330.132 249.951 329.604 250.02C330.082 249.78 330.58 249.583 331.092 249.431C332.064 249.09 333.469 248.615 335.226 248.108C338.751 247.075 343.681 245.845 349.189 244.791C353.856 243.898 358.564 243.243 363.297 242.827C365.126 242.672 366.604 242.61 367.638 242.589C368.169 242.553 368.702 242.571 369.229 242.641Z" fill="#263238"/>
<path d="M312.199 294.214C312.089 294.064 311.999 293.901 311.931 293.728L311.249 292.292C310.659 291.041 309.864 289.191 308.913 286.928C306.99 282.38 304.541 276.014 301.936 268.944C299.332 261.875 296.934 255.508 295.115 250.909C294.226 248.677 293.493 246.847 292.945 245.483L292.366 244.005C292.286 243.835 292.23 243.654 292.201 243.468C292.311 243.617 292.401 243.781 292.469 243.954L293.152 245.39C293.73 246.641 294.536 248.491 295.487 250.754C297.41 255.302 299.859 261.668 302.464 268.738C305.068 275.807 307.466 282.173 309.285 286.773C310.174 289.005 310.908 290.834 311.445 292.199C311.683 292.788 311.879 293.232 312.034 293.677C312.114 293.847 312.17 294.028 312.199 294.214Z" fill="#263238"/>
<path d="M364.992 277.192C364.826 277.287 364.649 277.36 364.465 277.409L362.935 277.926L357.282 279.755C352.507 281.305 345.913 283.517 338.678 285.956C331.444 288.395 324.819 290.566 320.013 292.013C317.615 292.746 315.662 293.304 314.308 293.677L312.747 294.08C312.566 294.137 312.379 294.175 312.189 294.193C312.355 294.098 312.532 294.025 312.716 293.976L314.246 293.459L319.899 291.63C324.674 290.08 331.268 287.868 338.503 285.429C345.737 282.99 352.352 280.819 357.158 279.373C359.566 278.639 361.509 278.081 362.873 277.709L364.434 277.305C364.615 277.248 364.802 277.21 364.992 277.192Z" fill="#263238"/>
<path d="M343.453 26.4893L338.131 28.391L335.847 21.4353C331.65 8.60927 318.277 1.79833 305.988 6.12881C293.699 10.4593 287.157 24.5256 291.353 37.3516L293.637 44.3073L288.294 46.2193C286.257 47.0096 284.602 48.5547 283.674 50.5334C282.746 52.5121 282.617 54.7722 283.312 56.844L298.123 102.102C298.43 103.128 298.941 104.081 299.624 104.905C300.307 105.73 301.149 106.409 302.099 106.901C303.05 107.394 304.09 107.69 305.157 107.773C306.225 107.856 307.298 107.724 308.313 107.383L363.473 87.6534C365.537 86.8645 367.215 85.3057 368.154 83.3049C369.093 81.3041 369.219 79.0173 368.506 76.9254L353.685 31.6672C353.37 30.6445 352.852 29.6958 352.162 28.8777C351.471 28.0597 350.624 27.389 349.669 26.9057C348.714 26.4225 347.671 26.1365 346.603 26.065C345.536 25.9934 344.464 26.1377 343.453 26.4893ZM301.409 33.724C300.278 30.389 300.481 26.7456 301.976 23.557C303.471 20.3685 306.142 17.8822 309.43 16.6191C311.053 16.0637 312.771 15.841 314.483 15.9642C316.194 16.0875 317.863 16.5542 319.39 17.3364C320.917 18.1187 322.27 19.2005 323.37 20.5174C324.47 21.8342 325.293 23.3591 325.79 25.001L328.064 31.9566L303.683 40.6796L301.409 33.724ZM332.415 73.8868L336.198 85.4416C336.267 85.6733 336.245 85.9229 336.135 86.1384C336.026 86.354 335.837 86.519 335.609 86.5992L330.307 88.4905C330.096 88.549 329.87 88.5236 329.678 88.4196C329.485 88.3155 329.34 88.1409 329.273 87.9324L325.46 76.4293C323.357 76.3147 321.339 75.5604 319.677 74.2675C318.014 72.9745 316.787 71.2046 316.158 69.1946C315.259 66.5373 315.423 63.6353 316.615 61.0962C317.808 58.5571 319.936 56.5778 322.555 55.5727C323.848 55.1309 325.217 54.954 326.58 55.0524C327.943 55.1508 329.272 55.5227 330.488 56.1457C331.705 56.7687 332.783 57.6302 333.659 58.6788C334.535 59.7275 335.191 60.9417 335.588 62.2493C336.253 64.2911 336.308 66.4825 335.746 68.555C335.185 70.6276 334.031 72.4913 332.426 73.9178L332.415 73.8868Z" fill="#3066B8"/>
<path d="M337.893 28.267C337.893 28.4116 328.023 32.122 315.744 36.5352C303.466 40.9483 293.451 44.4933 293.4 44.39C293.348 44.2866 303.27 40.5452 315.558 36.1218C327.847 31.6983 337.841 28.1326 337.893 28.267Z" fill="#263238"/>
<path d="M349.613 30.1686C349.659 30.2583 349.697 30.3517 349.727 30.4477C349.809 30.6544 349.902 30.9231 350.027 31.2538C350.295 32.0083 350.667 33.0522 351.132 34.3544L355.101 45.9092C356.755 50.8082 358.729 56.6166 360.92 63.0658C361.953 66.3007 363.173 69.67 364.31 73.215C364.918 75.0418 365.181 76.966 365.085 78.8891C364.997 79.8892 364.713 80.8622 364.248 81.7519C363.751 82.6388 363.088 83.4213 362.294 84.0567C360.698 85.2223 358.925 86.1259 357.044 86.7335L351.722 88.6456L341.645 92.2526L324.581 98.3297L313.057 102.381L309.957 103.415L309.13 103.683C309.041 103.723 308.947 103.747 308.851 103.756C308.851 103.756 308.934 103.756 309.109 103.632L309.915 103.311L313.016 102.143L324.478 97.9266L341.51 91.7255L351.566 88.0875L356.889 86.1651C358.717 85.5822 360.438 84.706 361.984 83.571C362.723 82.9814 363.34 82.255 363.803 81.4315C364.241 80.6086 364.505 79.7045 364.579 78.7754C364.674 76.9225 364.421 75.0681 363.834 73.308C362.718 69.794 361.54 66.3937 360.475 63.1588C358.326 56.6993 356.341 50.8702 354.77 45.9713C353.199 41.0723 351.877 37.1346 350.967 34.3648C350.533 33.0108 350.202 31.9566 349.934 31.1918L349.685 30.365C349.654 30.3024 349.63 30.2365 349.613 30.1686Z" fill="#263238"/>
<path d="M320.509 15.9163C320.509 15.9163 319.961 15.6476 318.948 15.2342C317.505 14.6795 315.978 14.372 314.432 14.3247C312.14 14.2461 309.86 14.6768 307.755 15.5856C305.196 16.7173 303.007 18.5477 301.44 20.8669C299.863 23.1794 299.017 25.9123 299.012 28.7114C299.033 31.0055 299.381 33.2849 300.045 35.481C300.583 37.362 301.141 38.8606 301.513 39.9045C301.732 40.4347 301.912 40.9805 302.05 41.5374C301.757 41.0417 301.511 40.5191 301.316 39.9768C300.893 38.9433 300.283 37.4757 299.683 35.5843C298.948 33.3652 298.547 31.0487 298.495 28.7114C298.467 25.8066 299.333 22.9635 300.975 20.5672C302.597 18.1633 304.875 16.2762 307.538 15.1308C309.709 14.217 312.06 13.8139 314.411 13.9526C315.991 14.0331 317.542 14.4008 318.99 15.0378C319.377 15.2164 319.75 15.4237 320.106 15.6579C320.253 15.7225 320.389 15.8097 320.509 15.9163Z" fill="#263238"/>
<path d="M320.984 56.3582C321.149 56.2582 321.322 56.1718 321.501 56.0998C322.018 55.8664 322.554 55.6762 323.103 55.5314C323.974 55.2743 324.873 55.1216 325.78 55.0766C327.014 55.0103 328.248 55.1967 329.408 55.6244C332.053 56.5546 334.482 59.2521 335.681 62.8591C336.256 64.7948 336.256 66.8558 335.681 68.7915C335.044 70.8924 333.901 72.8051 332.353 74.3622L332.415 74.0832C333.79 77.8555 335.288 81.9483 336.839 86.2168L336.932 86.4752L336.673 86.5682L334.307 87.3536L329.139 89.0796L328.881 89.1623L328.798 88.9039C327.382 84.6251 325.832 80.6357 324.664 76.7187L324.891 76.8944C322.871 76.7265 320.944 75.9682 319.351 74.7136C317.91 73.6038 316.729 72.1929 315.889 70.5795C315.131 69.1487 314.754 67.5472 314.794 65.9286C314.841 64.2744 315.254 62.6513 316.003 61.1754C316.752 59.6995 317.818 58.4074 319.124 57.3917C319.662 56.9551 320.265 56.6063 320.912 56.3582C320.328 56.7046 319.762 57.0806 319.217 57.4847C317.782 58.699 316.682 60.2612 316.023 62.0219C315.458 63.3496 315.194 64.7861 315.249 66.2281C315.304 67.6701 315.678 69.082 316.344 70.3625C317.17 71.9146 318.323 73.2688 319.723 74.3312C321.243 75.5237 323.08 76.2426 325.005 76.3983H325.181L325.232 76.5533C326.369 80.398 327.93 84.4184 329.366 88.7179L329.025 88.5525L334.193 86.8265L336.549 86.0307L336.384 86.3821C334.844 82.1137 333.356 78.0106 331.991 74.2382V74.0832L332.115 73.9591C333.618 72.4666 334.738 70.6337 335.381 68.6158C335.93 66.7642 335.93 64.7934 335.381 62.9418C334.255 59.4691 331.929 56.8336 329.408 55.9034C328.291 55.473 327.1 55.2726 325.904 55.3143C325.011 55.3348 324.124 55.4561 323.258 55.6761C321.718 56.0585 320.995 56.4099 320.984 56.3582Z" fill="#263238"/>
<path d="M289.038 354.779L185.799 354.303C179.837 354.27 174.132 351.873 169.937 347.637C165.741 343.4 163.399 337.672 163.423 331.71L164.519 72.9049C164.531 69.9512 165.125 67.0288 166.267 64.3048C167.41 61.5808 169.078 59.1086 171.176 57.0296C173.274 54.9506 175.761 53.3055 178.496 52.1883C181.23 51.0711 184.158 50.5038 187.112 50.5188L290.34 50.9942C296.302 51.0243 302.009 53.4194 306.206 57.6536C310.403 61.8878 312.749 67.6147 312.727 73.5767L311.631 332.372C311.619 335.326 311.025 338.25 309.883 340.975C308.741 343.7 307.073 346.174 304.975 348.254C302.877 350.335 300.39 351.982 297.656 353.102C294.921 354.221 291.993 354.791 289.038 354.779Z" fill="#455A64"/>
<path d="M290.185 59.8929H270.176C269.523 59.905 268.879 60.0456 268.281 60.3066C267.682 60.5677 267.141 60.9441 266.688 61.4144C266.235 61.8847 265.879 62.4396 265.641 63.0475C265.402 63.6554 265.286 64.3043 265.298 64.9571V68.5848C265.31 69.2372 265.194 69.8856 264.955 70.4928C264.717 71.1001 264.36 71.6544 263.907 72.1238C263.454 72.5933 262.913 72.9687 262.314 73.2287C261.716 73.4887 261.072 73.628 260.42 73.6388L221.414 73.4631C220.095 73.4279 218.843 72.8704 217.934 71.9132C217.026 70.9559 216.534 69.677 216.567 68.3574V64.7298C216.601 63.4119 216.11 62.1346 215.204 61.1776C214.297 60.2206 213.048 59.662 211.73 59.6241H204.692L187.174 59.5415C183.007 59.5167 179 61.1439 176.031 64.067C173.061 66.9901 171.371 70.9707 171.33 75.1374L170.296 327.752C170.287 329.819 170.684 331.868 171.467 333.781C172.249 335.695 173.4 337.435 174.855 338.903C176.31 340.372 178.04 341.539 179.946 342.339C181.852 343.139 183.897 343.555 185.964 343.565L288.986 344.04C291.055 344.05 293.105 343.652 295.02 342.869C296.934 342.086 298.676 340.934 300.145 339.478C301.615 338.022 302.783 336.291 303.583 334.384C304.383 332.476 304.8 330.43 304.81 328.362L305.843 75.7472C305.868 71.5688 304.232 67.5515 301.296 64.5786C298.36 61.6056 294.364 59.9202 290.185 59.8929Z" fill="white"/>
<path d="M276.326 310.337L199.721 310.006C198.925 310.006 198.284 309.138 198.294 308.084L198.377 288.044C198.377 287.01 199.028 286.121 199.824 286.121L276.429 286.473C276.87 286.549 277.265 286.793 277.53 287.153C277.796 287.513 277.912 287.962 277.855 288.406L277.783 308.425C277.783 309.489 277.122 310.347 276.326 310.337Z" fill="#3979D9"/>
<path d="M224.879 296V291.337H225.51V296H224.879ZM225.199 290.307C225.069 290.307 224.959 290.263 224.87 290.174C224.782 290.085 224.737 289.979 224.737 289.854C224.737 289.73 224.782 289.626 224.87 289.543C224.959 289.455 225.069 289.41 225.199 289.41C225.329 289.41 225.439 289.452 225.528 289.534C225.616 289.617 225.661 289.721 225.661 289.845C225.661 289.976 225.616 290.085 225.528 290.174C225.445 290.263 225.335 290.307 225.199 290.307ZM229.644 291.293C230.023 291.293 230.355 291.367 230.639 291.515C230.929 291.657 231.154 291.876 231.314 292.172C231.48 292.468 231.563 292.841 231.563 293.291V296H230.932V293.353C230.932 292.862 230.808 292.492 230.559 292.243C230.317 291.989 229.973 291.861 229.529 291.861C229.197 291.861 228.907 291.929 228.659 292.066C228.416 292.196 228.226 292.388 228.09 292.643C227.96 292.892 227.895 293.194 227.895 293.549V296H227.264V291.337H227.868V292.616L227.771 292.376C227.919 292.039 228.155 291.776 228.481 291.586C228.807 291.391 229.195 291.293 229.644 291.293ZM233.266 296V291.337H233.897V296H233.266ZM233.586 290.307C233.456 290.307 233.346 290.263 233.257 290.174C233.168 290.085 233.124 289.979 233.124 289.854C233.124 289.73 233.168 289.626 233.257 289.543C233.346 289.455 233.456 289.41 233.586 289.41C233.716 289.41 233.826 289.452 233.914 289.534C234.003 289.617 234.048 289.721 234.048 289.845C234.048 289.976 234.003 290.085 233.914 290.174C233.832 290.263 233.722 290.307 233.586 290.307ZM237.587 296.044C237.125 296.044 236.711 295.944 236.344 295.742C235.983 295.535 235.699 295.254 235.491 294.899C235.284 294.538 235.18 294.126 235.18 293.664C235.18 293.196 235.284 292.785 235.491 292.43C235.699 292.075 235.983 291.796 236.344 291.595C236.711 291.394 237.125 291.293 237.587 291.293C237.984 291.293 238.342 291.37 238.662 291.524C238.982 291.678 239.233 291.909 239.417 292.217L238.946 292.536C238.786 292.299 238.588 292.125 238.351 292.012C238.114 291.9 237.857 291.844 237.578 291.844C237.247 291.844 236.948 291.921 236.681 292.075C236.415 292.223 236.205 292.433 236.051 292.705C235.897 292.977 235.82 293.297 235.82 293.664C235.82 294.031 235.897 294.351 236.051 294.623C236.205 294.896 236.415 295.109 236.681 295.263C236.948 295.411 237.247 295.485 237.578 295.485C237.857 295.485 238.114 295.429 238.351 295.316C238.588 295.204 238.786 295.032 238.946 294.801L239.417 295.121C239.233 295.423 238.982 295.654 238.662 295.813C238.342 295.967 237.984 296.044 237.587 296.044ZM240.586 296V291.337H241.217V296H240.586ZM240.906 290.307C240.776 290.307 240.666 290.263 240.577 290.174C240.488 290.085 240.444 289.979 240.444 289.854C240.444 289.73 240.488 289.626 240.577 289.543C240.666 289.455 240.776 289.41 240.906 289.41C241.036 289.41 241.146 289.452 241.234 289.534C241.323 289.617 241.368 289.721 241.368 289.845C241.368 289.976 241.323 290.085 241.234 290.174C241.152 290.263 241.042 290.307 240.906 290.307ZM245.893 296V294.97L245.866 294.801V293.078C245.866 292.681 245.754 292.376 245.529 292.163C245.31 291.95 244.981 291.844 244.543 291.844C244.241 291.844 243.954 291.894 243.682 291.995C243.409 292.095 243.178 292.228 242.989 292.394L242.705 291.924C242.942 291.722 243.226 291.568 243.557 291.462C243.889 291.349 244.238 291.293 244.605 291.293C245.209 291.293 245.674 291.444 246 291.746C246.331 292.042 246.497 292.495 246.497 293.105V296H245.893ZM244.286 296.044C243.936 296.044 243.631 295.988 243.371 295.876C243.116 295.757 242.921 295.597 242.785 295.396C242.649 295.189 242.58 294.952 242.58 294.686C242.58 294.443 242.637 294.224 242.749 294.028C242.868 293.827 243.057 293.667 243.318 293.549C243.584 293.424 243.939 293.362 244.383 293.362H245.991V293.833H244.401C243.951 293.833 243.637 293.913 243.46 294.073C243.288 294.233 243.202 294.431 243.202 294.668C243.202 294.934 243.306 295.147 243.513 295.307C243.72 295.467 244.01 295.547 244.383 295.547C244.739 295.547 245.044 295.467 245.298 295.307C245.559 295.141 245.748 294.905 245.866 294.597L246.009 295.032C245.89 295.34 245.683 295.586 245.387 295.769C245.097 295.953 244.73 296.044 244.286 296.044ZM248.21 296V291.337H248.814V292.607L248.751 292.385C248.882 292.03 249.101 291.761 249.409 291.577C249.717 291.388 250.098 291.293 250.554 291.293V291.906C250.531 291.906 250.507 291.906 250.483 291.906C250.46 291.9 250.436 291.897 250.412 291.897C249.921 291.897 249.536 292.048 249.258 292.35C248.979 292.646 248.84 293.069 248.84 293.62V296H248.21ZM226.131 307.044C225.747 307.044 225.383 306.991 225.039 306.885C224.696 306.772 224.426 306.633 224.231 306.467L224.515 305.97C224.705 306.112 224.947 306.236 225.243 306.343C225.539 306.443 225.85 306.494 226.176 306.494C226.62 306.494 226.94 306.426 227.135 306.29C227.33 306.147 227.428 305.961 227.428 305.73C227.428 305.558 227.372 305.425 227.259 305.33C227.153 305.23 227.011 305.156 226.833 305.108C226.655 305.055 226.457 305.011 226.238 304.975C226.019 304.94 225.8 304.898 225.581 304.851C225.368 304.803 225.172 304.735 224.995 304.646C224.817 304.552 224.672 304.424 224.56 304.265C224.453 304.105 224.4 303.892 224.4 303.625C224.4 303.371 224.471 303.143 224.613 302.941C224.755 302.74 224.962 302.583 225.234 302.471C225.513 302.352 225.85 302.293 226.247 302.293C226.549 302.293 226.851 302.334 227.153 302.417C227.455 302.494 227.703 302.598 227.899 302.728L227.624 303.234C227.416 303.092 227.194 302.992 226.957 302.932C226.721 302.867 226.484 302.835 226.247 302.835C225.827 302.835 225.516 302.909 225.314 303.057C225.119 303.199 225.021 303.382 225.021 303.607C225.021 303.785 225.075 303.924 225.181 304.025C225.294 304.125 225.439 304.205 225.616 304.265C225.8 304.318 225.998 304.362 226.211 304.398C226.43 304.433 226.647 304.478 226.86 304.531C227.079 304.578 227.277 304.646 227.455 304.735C227.638 304.818 227.783 304.94 227.89 305.099C228.002 305.253 228.059 305.458 228.059 305.712C228.059 305.985 227.982 306.221 227.828 306.423C227.68 306.618 227.461 306.772 227.171 306.885C226.886 306.991 226.54 307.044 226.131 307.044ZM231.196 307.044C230.711 307.044 230.284 306.944 229.917 306.742C229.55 306.535 229.263 306.254 229.056 305.899C228.849 305.538 228.745 305.126 228.745 304.664C228.745 304.202 228.843 303.794 229.038 303.439C229.239 303.083 229.512 302.805 229.855 302.604C230.205 302.397 230.595 302.293 231.028 302.293C231.466 302.293 231.853 302.394 232.191 302.595C232.534 302.79 232.804 303.069 232.999 303.43C233.195 303.785 233.292 304.196 233.292 304.664C233.292 304.694 233.289 304.726 233.283 304.762C233.283 304.792 233.283 304.824 233.283 304.86H229.225V304.389H232.946L232.697 304.575C232.697 304.238 232.623 303.939 232.475 303.678C232.333 303.412 232.138 303.205 231.889 303.057C231.64 302.909 231.353 302.835 231.028 302.835C230.708 302.835 230.421 302.909 230.166 303.057C229.911 303.205 229.713 303.412 229.571 303.678C229.429 303.945 229.358 304.25 229.358 304.593V304.691C229.358 305.046 229.435 305.36 229.589 305.632C229.749 305.899 229.968 306.109 230.246 306.263C230.53 306.411 230.853 306.485 231.214 306.485C231.498 306.485 231.762 306.435 232.004 306.334C232.253 306.233 232.466 306.079 232.644 305.872L232.999 306.281C232.792 306.529 232.531 306.719 232.218 306.849C231.91 306.979 231.569 307.044 231.196 307.044ZM235.828 307.044C235.443 307.044 235.079 306.991 234.736 306.885C234.392 306.772 234.123 306.633 233.927 306.467L234.212 305.97C234.401 306.112 234.644 306.236 234.94 306.343C235.236 306.443 235.547 306.494 235.872 306.494C236.316 306.494 236.636 306.426 236.832 306.29C237.027 306.147 237.125 305.961 237.125 305.73C237.125 305.558 237.068 305.425 236.956 305.33C236.849 305.23 236.707 305.156 236.53 305.108C236.352 305.055 236.154 305.011 235.935 304.975C235.715 304.94 235.496 304.898 235.277 304.851C235.064 304.803 234.869 304.735 234.691 304.646C234.514 304.552 234.368 304.424 234.256 304.265C234.149 304.105 234.096 303.892 234.096 303.625C234.096 303.371 234.167 303.143 234.309 302.941C234.451 302.74 234.659 302.583 234.931 302.471C235.209 302.352 235.547 302.293 235.943 302.293C236.245 302.293 236.547 302.334 236.849 302.417C237.151 302.494 237.4 302.598 237.595 302.728L237.32 303.234C237.113 303.092 236.891 302.992 236.654 302.932C236.417 302.867 236.18 302.835 235.943 302.835C235.523 302.835 235.212 302.909 235.011 303.057C234.816 303.199 234.718 303.382 234.718 303.607C234.718 303.785 234.771 303.924 234.878 304.025C234.99 304.125 235.135 304.205 235.313 304.265C235.496 304.318 235.695 304.362 235.908 304.398C236.127 304.433 236.343 304.478 236.556 304.531C236.775 304.578 236.974 304.646 237.151 304.735C237.335 304.818 237.48 304.94 237.586 305.099C237.699 305.253 237.755 305.458 237.755 305.712C237.755 305.985 237.678 306.221 237.524 306.423C237.376 306.618 237.157 306.772 236.867 306.885C236.583 306.991 236.236 307.044 235.828 307.044ZM238.912 307V302.337H239.543V307H238.912ZM239.232 301.307C239.102 301.307 238.992 301.263 238.903 301.174C238.815 301.085 238.77 300.979 238.77 300.854C238.77 300.73 238.815 300.626 238.903 300.543C238.992 300.455 239.102 300.41 239.232 300.41C239.362 300.41 239.472 300.452 239.561 300.534C239.649 300.617 239.694 300.721 239.694 300.845C239.694 300.976 239.649 301.085 239.561 301.174C239.478 301.263 239.368 301.307 239.232 301.307ZM243.198 307.044C242.748 307.044 242.342 306.944 241.981 306.742C241.626 306.535 241.345 306.254 241.137 305.899C240.93 305.538 240.827 305.126 240.827 304.664C240.827 304.196 240.93 303.785 241.137 303.43C241.345 303.075 241.626 302.796 241.981 302.595C242.336 302.394 242.742 302.293 243.198 302.293C243.66 302.293 244.068 302.394 244.424 302.595C244.785 302.796 245.066 303.075 245.267 303.43C245.474 303.785 245.578 304.196 245.578 304.664C245.578 305.126 245.474 305.538 245.267 305.899C245.066 306.254 244.785 306.535 244.424 306.742C244.062 306.944 243.654 307.044 243.198 307.044ZM243.198 306.485C243.535 306.485 243.834 306.411 244.095 306.263C244.355 306.109 244.56 305.896 244.708 305.623C244.862 305.345 244.939 305.025 244.939 304.664C244.939 304.297 244.862 303.977 244.708 303.705C244.56 303.433 244.355 303.223 244.095 303.075C243.834 302.921 243.538 302.844 243.207 302.844C242.875 302.844 242.579 302.921 242.319 303.075C242.058 303.223 241.851 303.433 241.697 303.705C241.543 303.977 241.466 304.297 241.466 304.664C241.466 305.025 241.543 305.345 241.697 305.623C241.851 305.896 242.058 306.109 242.319 306.263C242.579 306.411 242.872 306.485 243.198 306.485ZM242.621 301.609L243.837 300.508H244.681L243.242 301.609H242.621ZM249.246 302.293C249.625 302.293 249.956 302.367 250.24 302.515C250.53 302.657 250.755 302.876 250.915 303.172C251.081 303.468 251.164 303.841 251.164 304.291V307H250.533V304.353C250.533 303.862 250.409 303.492 250.16 303.243C249.918 302.989 249.574 302.861 249.13 302.861C248.799 302.861 248.508 302.929 248.26 303.066C248.017 303.196 247.828 303.388 247.691 303.643C247.561 303.892 247.496 304.194 247.496 304.549V307H246.865V302.337H247.469V303.616L247.372 303.376C247.52 303.039 247.757 302.776 248.082 302.586C248.408 302.391 248.796 302.293 249.246 302.293Z" fill="#E8E8E3"/>
<path d="M215 134.152L188.418 134.031L188.396 138.91L214.978 139.03L215 134.152Z" fill="#3979D9"/>
<path opacity="0.1" d="M215 134.152L188.418 134.031L188.396 138.91L214.978 139.03L215 134.152Z" fill="black"/>
<path d="M292.924 164.103C293.133 164.082 293.338 164.034 293.534 163.959C293.82 163.847 294.069 163.657 294.252 163.41C294.434 163.163 294.544 162.87 294.567 162.563C294.567 160.92 294.567 158.522 294.567 155.442C294.567 153.902 294.567 152.176 294.567 150.275C294.567 149.81 294.567 149.324 294.567 148.838C294.635 148.367 294.532 147.887 294.278 147.484C294.136 147.291 293.951 147.134 293.737 147.024C293.524 146.915 293.288 146.857 293.048 146.854H291.436H276.501L190.057 146.533C189.836 146.53 189.617 146.579 189.419 146.678C189.221 146.777 189.05 146.923 188.92 147.102C188.671 147.506 188.575 147.987 188.652 148.456C188.652 149.489 188.652 150.523 188.652 151.556C188.652 153.623 188.652 155.69 188.652 157.757C188.652 158.791 188.652 159.825 188.652 160.858C188.609 161.339 188.609 161.824 188.652 162.305C188.706 162.511 188.807 162.703 188.947 162.864C189.086 163.025 189.261 163.152 189.458 163.235C189.661 163.316 189.88 163.355 190.099 163.349H195.359L218.314 163.473L257.174 163.711L283.374 163.917L290.495 164H292.345C292.769 164 292.976 164 292.976 164H292.345H290.495H283.374H257.174L218.314 163.876L195.359 163.783H190.099C189.809 163.795 189.52 163.745 189.251 163.638C188.979 163.522 188.737 163.345 188.544 163.121C188.35 162.898 188.21 162.632 188.135 162.346C188.075 162.075 188.054 161.797 188.073 161.52V160.755C188.073 159.721 188.073 158.688 188.073 157.654C188.073 155.587 188.073 153.52 188.073 151.453C188.073 150.419 188.073 149.386 188.073 148.352C188.053 148.077 188.053 147.801 188.073 147.526C188.112 147.222 188.229 146.933 188.414 146.688C188.592 146.439 188.828 146.236 189.102 146.098C189.375 145.959 189.678 145.889 189.985 145.893L276.429 146.368L291.364 146.471H292.976C293.26 146.472 293.54 146.54 293.792 146.672C294.043 146.803 294.26 146.993 294.423 147.226C294.714 147.675 294.832 148.215 294.754 148.745C294.754 149.231 294.754 149.717 294.754 150.182C294.754 152.063 294.754 153.789 294.754 155.349C294.754 158.45 294.681 160.827 294.66 162.481C294.635 162.799 294.52 163.103 294.327 163.357C294.135 163.612 293.874 163.806 293.575 163.917C293.38 164.039 293.154 164.103 292.924 164.103Z" fill="#E0E0E0"/>
<path d="M245.02 151.722H196.403V156.28H245.02V151.722Z" fill="#3979D9"/>
<path opacity="0.2" d="M245.02 151.722H196.403V156.28H245.02V151.722Z" fill="white"/>
<path d="M214.819 178.654L188.237 178.534L188.215 183.412L214.797 183.532L214.819 178.654Z" fill="#3979D9"/>
<path opacity="0.1" d="M214.819 178.654L188.237 178.534L188.215 183.412L214.797 183.532L214.819 178.654Z" fill="black"/>
<path d="M292.252 208.607C292.461 208.581 292.668 208.543 292.872 208.493C293.161 208.401 293.427 208.249 293.651 208.045C293.876 207.842 294.054 207.593 294.175 207.315C294.337 206.898 294.401 206.449 294.361 206.002C294.361 205.506 294.361 204.969 294.361 204.37C294.361 203.171 294.361 201.806 294.361 200.235V193.673C294.41 193.197 294.305 192.719 294.061 192.308C293.806 191.887 293.405 191.574 292.934 191.43C292.42 191.338 291.895 191.31 291.374 191.347H276.501L190.357 191.027C189.894 191.028 189.446 191.197 189.099 191.503C188.751 191.809 188.526 192.231 188.466 192.691C188.466 193.673 188.466 194.758 188.466 195.791C188.466 197.858 188.466 199.925 188.466 201.992C188.466 203.026 188.466 204.059 188.466 205.093C188.427 205.576 188.448 206.062 188.528 206.54C188.657 206.959 188.922 207.323 189.282 207.573C189.664 207.816 190.112 207.931 190.564 207.904H192H194.987L217.859 208.018L256.585 208.256L282.692 208.462L289.793 208.545H282.692H256.585L217.838 208.504L194.966 208.421H190.471C189.912 208.454 189.357 208.305 188.889 207.997C188.419 207.671 188.076 207.193 187.918 206.643C187.825 206.118 187.797 205.584 187.835 205.052C187.835 204.018 187.835 202.985 187.835 201.951C187.835 199.884 187.835 197.817 187.835 195.75C187.835 194.716 187.835 193.683 187.835 192.649C187.911 192.058 188.199 191.515 188.646 191.121C189.093 190.728 189.668 190.51 190.264 190.51L276.408 190.985L291.281 191.099C291.835 191.065 292.391 191.103 292.934 191.213C293.471 191.388 293.924 191.756 294.206 192.246C294.473 192.701 294.589 193.23 294.536 193.755C294.536 194.241 294.536 194.716 294.536 195.192C294.536 197.062 294.536 198.778 294.536 200.359C294.536 201.941 294.536 203.274 294.536 204.494C294.536 205.083 294.536 205.63 294.536 206.137C294.574 206.599 294.5 207.063 294.319 207.491C294.185 207.776 293.991 208.029 293.75 208.232C293.51 208.435 293.228 208.584 292.924 208.669C292.698 208.688 292.471 208.667 292.252 208.607Z" fill="#E0E0E0"/>
<path d="M214.619 225.089L188.037 224.969L188.015 229.847L214.597 229.967L214.619 225.089Z" fill="#3979D9"/>
<path opacity="0.1" d="M214.619 225.089L188.037 224.969L188.015 229.847L214.597 229.967L214.619 225.089Z" fill="black"/>
<path d="M292.046 255.023C292.255 254.998 292.462 254.96 292.666 254.909C292.953 254.818 293.218 254.666 293.442 254.465C293.667 254.264 293.846 254.017 293.968 253.741C294.13 253.324 294.194 252.875 294.154 252.429C294.154 251.922 294.154 251.395 294.154 250.785C294.154 249.597 294.154 248.222 294.154 246.651V240.088C294.203 239.613 294.098 239.135 293.854 238.724C293.593 238.31 293.194 238.003 292.728 237.856C292.213 237.76 291.689 237.729 291.167 237.763H276.295L190.15 237.442C189.687 237.443 189.24 237.613 188.892 237.919C188.544 238.225 188.319 238.647 188.259 239.106C188.259 240.14 188.259 241.173 188.259 242.207C188.259 244.274 188.259 246.341 188.259 248.408C188.259 249.442 188.259 250.475 188.259 251.509C188.22 251.988 188.241 252.471 188.321 252.945C188.445 253.367 188.711 253.732 189.075 253.979C189.455 254.227 189.905 254.343 190.357 254.309H194.853L217.725 254.434L256.451 254.671L282.558 254.878L289.658 254.961H282.558H256.451L217.725 254.847L194.853 254.754H190.357C189.798 254.792 189.241 254.643 188.776 254.33C188.305 254.004 187.962 253.526 187.804 252.976C187.712 252.451 187.684 251.917 187.722 251.385C187.722 250.351 187.722 249.318 187.722 248.284C187.722 246.217 187.722 244.15 187.722 242.083C187.722 241.049 187.722 240.016 187.722 238.931C187.795 238.341 188.081 237.797 188.526 237.403C188.971 237.01 189.545 236.792 190.14 236.791L276.284 237.267L291.157 237.38C291.711 237.346 292.267 237.385 292.81 237.494C293.347 237.669 293.8 238.038 294.082 238.528C294.349 238.983 294.465 239.511 294.412 240.037C294.412 240.522 294.412 241.008 294.412 241.473C294.412 243.344 294.412 245.059 294.412 246.641C294.412 248.222 294.412 249.555 294.412 250.775C294.412 251.364 294.412 251.912 294.412 252.418C294.452 252.88 294.378 253.345 294.195 253.772C294.061 254.057 293.867 254.31 293.626 254.513C293.386 254.717 293.104 254.866 292.8 254.95C292.558 255.033 292.299 255.058 292.046 255.023Z" fill="#E0E0E0"/>
<path d="M243.982 197.514L195.366 197.293L195.345 201.851L243.962 202.072L243.982 197.514Z" fill="#3979D9"/>
<path opacity="0.2" d="M243.982 197.514L195.366 197.293L195.345 201.851L243.962 202.072L243.982 197.514Z" fill="white"/>
<path d="M199.762 246.589C199.732 247.005 199.58 247.402 199.325 247.733C199.071 248.063 198.725 248.311 198.331 248.447C197.937 248.582 197.511 248.599 197.108 248.495C196.704 248.391 196.34 248.171 196.06 247.862C195.78 247.553 195.598 247.168 195.534 246.756C195.471 246.344 195.53 245.923 195.704 245.544C195.878 245.165 196.16 244.846 196.514 244.626C196.868 244.405 197.278 244.294 197.695 244.305C198.271 244.337 198.811 244.595 199.198 245.022C199.585 245.45 199.787 246.013 199.762 246.589Z" fill="#3979D9"/>
<path d="M206.346 246.62C206.366 246.911 206.326 247.204 206.229 247.479C206.131 247.755 205.978 248.007 205.779 248.22C205.58 248.434 205.338 248.604 205.071 248.721C204.803 248.837 204.514 248.897 204.222 248.897C203.93 248.897 203.641 248.837 203.373 248.721C203.105 248.604 202.864 248.434 202.665 248.22C202.465 248.007 202.312 247.755 202.215 247.479C202.117 247.204 202.077 246.911 202.098 246.62C202.077 246.329 202.117 246.036 202.215 245.761C202.312 245.486 202.465 245.233 202.665 245.02C202.864 244.806 203.105 244.636 203.373 244.519C203.641 244.403 203.93 244.343 204.222 244.343C204.514 244.343 204.803 244.403 205.071 244.519C205.338 244.636 205.58 244.806 205.779 245.02C205.978 245.233 206.131 245.486 206.229 245.761C206.326 246.036 206.366 246.329 206.346 246.62Z" fill="#3979D9"/>
<path d="M212.94 246.651C212.909 247.067 212.757 247.464 212.503 247.795C212.248 248.125 211.903 248.373 211.508 248.509C211.114 248.644 210.689 248.661 210.285 248.557C209.882 248.453 209.517 248.233 209.238 247.924C208.958 247.615 208.775 247.23 208.712 246.818C208.649 246.406 208.708 245.985 208.882 245.606C209.056 245.227 209.337 244.908 209.691 244.688C210.045 244.467 210.456 244.356 210.872 244.367C211.447 244.402 211.986 244.66 212.372 245.087C212.759 245.514 212.962 246.076 212.94 246.651Z" fill="#3979D9"/>
<path d="M219.523 246.682C219.493 247.098 219.341 247.495 219.086 247.826C218.832 248.156 218.486 248.404 218.092 248.54C217.698 248.675 217.272 248.692 216.869 248.588C216.465 248.484 216.101 248.264 215.821 247.955C215.541 247.646 215.359 247.261 215.295 246.849C215.232 246.437 215.291 246.016 215.465 245.637C215.639 245.258 215.921 244.939 216.275 244.719C216.629 244.499 217.039 244.387 217.456 244.398C218.031 244.433 218.569 244.691 218.956 245.118C219.342 245.545 219.546 246.107 219.523 246.682Z" fill="#3979D9"/>
<path d="M226.107 246.703C226.078 247.119 225.928 247.518 225.675 247.85C225.421 248.181 225.076 248.431 224.682 248.568C224.288 248.705 223.862 248.724 223.458 248.621C223.053 248.518 222.688 248.298 222.407 247.989C222.126 247.681 221.943 247.296 221.879 246.884C221.815 246.471 221.873 246.049 222.047 245.67C222.221 245.291 222.503 244.971 222.857 244.75C223.211 244.53 223.622 244.418 224.04 244.429C224.613 244.464 225.149 244.721 225.536 245.146C225.922 245.57 226.127 246.129 226.107 246.703Z" fill="#3979D9"/>
<path d="M232.701 246.734C232.672 247.148 232.524 247.545 232.273 247.876C232.022 248.206 231.68 248.457 231.289 248.596C230.897 248.734 230.474 248.756 230.071 248.657C229.667 248.559 229.302 248.344 229.019 248.041C228.736 247.737 228.548 247.357 228.478 246.948C228.408 246.538 228.459 246.118 228.625 245.737C228.791 245.357 229.065 245.033 229.413 244.806C229.76 244.579 230.167 244.459 230.582 244.46C231.164 244.482 231.714 244.733 232.111 245.159C232.508 245.585 232.72 246.152 232.701 246.734Z" fill="#3979D9"/>
<path d="M239.284 246.765C239.304 247.056 239.265 247.349 239.167 247.624C239.07 247.899 238.916 248.152 238.717 248.365C238.518 248.579 238.277 248.749 238.009 248.866C237.741 248.982 237.452 249.042 237.16 249.042C236.868 249.042 236.579 248.982 236.311 248.866C236.043 248.749 235.802 248.579 235.603 248.365C235.404 248.152 235.251 247.899 235.153 247.624C235.056 247.349 235.016 247.056 235.036 246.765C235.016 246.473 235.056 246.181 235.153 245.906C235.251 245.63 235.404 245.378 235.603 245.164C235.802 244.951 236.043 244.78 236.311 244.664C236.579 244.548 236.868 244.487 237.16 244.487C237.452 244.487 237.741 244.548 238.009 244.664C238.277 244.78 238.518 244.951 238.717 245.164C238.916 245.378 239.07 245.63 239.167 245.906C239.265 246.181 239.304 246.473 239.284 246.765Z" fill="#3979D9"/>
<path d="M245.868 246.796C245.839 247.21 245.691 247.607 245.44 247.938C245.189 248.268 244.847 248.519 244.456 248.658C244.064 248.796 243.641 248.818 243.238 248.719C242.835 248.621 242.469 248.406 242.186 248.103C241.903 247.799 241.715 247.419 241.645 247.01C241.575 246.6 241.626 246.18 241.792 245.799C241.958 245.419 242.232 245.095 242.58 244.868C242.927 244.641 243.334 244.521 243.749 244.522C244.331 244.544 244.881 244.795 245.278 245.221C245.675 245.647 245.887 246.214 245.868 246.796Z" fill="#3979D9"/>
<path d="M252.451 246.827C252.423 247.243 252.273 247.642 252.019 247.974C251.766 248.305 251.421 248.555 251.027 248.692C250.632 248.829 250.207 248.848 249.802 248.745C249.398 248.642 249.033 248.422 248.752 248.113C248.471 247.805 248.287 247.42 248.223 247.008C248.159 246.595 248.218 246.173 248.392 245.794C248.566 245.415 248.847 245.095 249.202 244.874C249.556 244.654 249.967 244.542 250.384 244.553C250.957 244.588 251.494 244.845 251.88 245.27C252.266 245.694 252.471 246.253 252.451 246.827Z" fill="#3979D9"/>
<g opacity="0.2">
<path d="M199.762 246.589C199.732 247.005 199.58 247.402 199.325 247.733C199.071 248.063 198.725 248.311 198.331 248.447C197.937 248.582 197.511 248.599 197.108 248.495C196.704 248.391 196.34 248.171 196.06 247.862C195.78 247.553 195.598 247.168 195.534 246.756C195.471 246.344 195.53 245.923 195.704 245.544C195.878 245.165 196.16 244.846 196.514 244.626C196.868 244.405 197.278 244.294 197.695 244.305C198.271 244.337 198.811 244.595 199.198 245.022C199.585 245.45 199.787 246.013 199.762 246.589Z" fill="white"/>
<path d="M206.346 246.62C206.366 246.911 206.326 247.204 206.229 247.479C206.131 247.755 205.978 248.007 205.779 248.22C205.58 248.434 205.338 248.604 205.071 248.721C204.803 248.837 204.514 248.897 204.222 248.897C203.93 248.897 203.641 248.837 203.373 248.721C203.105 248.604 202.864 248.434 202.665 248.22C202.465 248.007 202.312 247.755 202.215 247.479C202.117 247.204 202.077 246.911 202.098 246.62C202.077 246.329 202.117 246.036 202.215 245.761C202.312 245.486 202.465 245.233 202.665 245.02C202.864 244.806 203.105 244.636 203.373 244.519C203.641 244.403 203.93 244.343 204.222 244.343C204.514 244.343 204.803 244.403 205.071 244.519C205.338 244.636 205.58 244.806 205.779 245.02C205.978 245.233 206.131 245.486 206.229 245.761C206.326 246.036 206.366 246.329 206.346 246.62Z" fill="white"/>
<path d="M212.94 246.651C212.909 247.067 212.757 247.464 212.503 247.795C212.248 248.125 211.903 248.373 211.508 248.509C211.114 248.644 210.689 248.661 210.285 248.557C209.882 248.453 209.517 248.233 209.238 247.924C208.958 247.615 208.775 247.23 208.712 246.818C208.649 246.406 208.708 245.985 208.882 245.606C209.056 245.227 209.337 244.908 209.691 244.688C210.045 244.467 210.456 244.356 210.872 244.367C211.447 244.402 211.986 244.66 212.372 245.087C212.759 245.514 212.962 246.076 212.94 246.651Z" fill="white"/>
<path d="M219.523 246.682C219.493 247.098 219.341 247.495 219.086 247.826C218.832 248.156 218.486 248.404 218.092 248.54C217.698 248.675 217.272 248.692 216.869 248.588C216.465 248.484 216.101 248.264 215.821 247.955C215.541 247.646 215.359 247.261 215.295 246.849C215.232 246.437 215.291 246.016 215.465 245.637C215.639 245.258 215.921 244.939 216.275 244.719C216.629 244.499 217.039 244.387 217.456 244.398C218.031 244.433 218.569 244.691 218.956 245.118C219.342 245.545 219.546 246.107 219.523 246.682Z" fill="white"/>
<path d="M226.107 246.703C226.078 247.119 225.928 247.518 225.675 247.85C225.421 248.181 225.076 248.431 224.682 248.568C224.288 248.705 223.862 248.724 223.458 248.621C223.053 248.518 222.688 248.298 222.407 247.989C222.126 247.681 221.943 247.296 221.879 246.884C221.815 246.471 221.873 246.049 222.047 245.67C222.221 245.291 222.503 244.971 222.857 244.75C223.211 244.53 223.622 244.418 224.04 244.429C224.613 244.464 225.149 244.721 225.536 245.146C225.922 245.57 226.127 246.129 226.107 246.703Z" fill="white"/>
<path d="M232.701 246.734C232.672 247.148 232.524 247.545 232.273 247.876C232.022 248.206 231.68 248.457 231.289 248.596C230.897 248.734 230.474 248.756 230.071 248.657C229.667 248.559 229.302 248.344 229.019 248.041C228.736 247.737 228.548 247.357 228.478 246.948C228.408 246.538 228.459 246.118 228.625 245.737C228.791 245.357 229.065 245.033 229.413 244.806C229.76 244.579 230.167 244.459 230.582 244.46C231.164 244.482 231.714 244.733 232.111 245.159C232.508 245.585 232.72 246.152 232.701 246.734Z" fill="white"/>
<path d="M239.284 246.765C239.304 247.056 239.265 247.349 239.167 247.624C239.07 247.899 238.916 248.152 238.717 248.365C238.518 248.579 238.277 248.749 238.009 248.866C237.741 248.982 237.452 249.042 237.16 249.042C236.868 249.042 236.579 248.982 236.311 248.866C236.043 248.749 235.802 248.579 235.603 248.365C235.404 248.152 235.251 247.899 235.153 247.624C235.056 247.349 235.016 247.056 235.036 246.765C235.016 246.473 235.056 246.181 235.153 245.906C235.251 245.63 235.404 245.378 235.603 245.164C235.802 244.951 236.043 244.78 236.311 244.664C236.579 244.548 236.868 244.487 237.16 244.487C237.452 244.487 237.741 244.548 238.009 244.664C238.277 244.78 238.518 244.951 238.717 245.164C238.916 245.378 239.07 245.63 239.167 245.906C239.265 246.181 239.304 246.473 239.284 246.765Z" fill="white"/>
<path d="M245.868 246.796C245.839 247.21 245.691 247.607 245.44 247.938C245.189 248.268 244.847 248.519 244.456 248.658C244.064 248.796 243.641 248.818 243.238 248.719C242.835 248.621 242.469 248.406 242.186 248.103C241.903 247.799 241.715 247.419 241.645 247.01C241.575 246.601 241.626 246.18 241.792 245.799C241.958 245.419 242.232 245.095 242.58 244.868C242.927 244.641 243.334 244.521 243.749 244.522C244.331 244.544 244.881 244.795 245.278 245.221C245.675 245.647 245.887 246.214 245.868 246.796Z" fill="white"/>
<path d="M252.451 246.827C252.423 247.243 252.273 247.642 252.019 247.974C251.766 248.305 251.421 248.555 251.027 248.692C250.632 248.829 250.207 248.848 249.802 248.745C249.398 248.642 249.033 248.422 248.752 248.113C248.471 247.805 248.287 247.42 248.223 247.008C248.159 246.595 248.218 246.173 248.392 245.794C248.566 245.415 248.847 245.095 249.202 244.874C249.556 244.654 249.967 244.542 250.384 244.553C250.957 244.588 251.494 244.845 251.88 245.27C252.266 245.694 252.471 246.253 252.451 246.827Z" fill="white"/>
</g>
<path d="M243.098 97.6269C243.816 97.3107 244.425 96.7904 244.849 96.1307C245.274 95.471 245.495 94.701 245.485 93.9165C245.512 93.4066 245.435 92.8966 245.258 92.4175C245.081 91.9384 244.809 91.5003 244.457 91.1299C244.106 90.7595 243.683 90.4645 243.214 90.2629C242.744 90.0614 242.239 89.9574 241.728 89.9574C241.218 89.9574 240.712 90.0614 240.243 90.2629C239.774 90.4645 239.351 90.7595 238.999 91.1299C238.648 91.5003 238.376 91.9384 238.199 92.4175C238.022 92.8966 237.945 93.4066 237.972 93.9165C237.956 94.7088 238.175 95.488 238.602 96.1558C239.029 96.8235 239.644 97.3498 240.369 97.6683C234.582 98.5364 234.84 104.82 234.84 104.82L248.524 104.882C248.524 104.882 248.844 98.4847 243.098 97.6269Z" fill="#3979D9"/>
<path opacity="0.1" d="M243.098 97.6269C243.816 97.3107 244.425 96.7904 244.849 96.1307C245.274 95.471 245.495 94.701 245.485 93.9165C245.512 93.4066 245.435 92.8966 245.258 92.4175C245.081 91.9384 244.809 91.5003 244.457 91.1299C244.106 90.7595 243.683 90.4645 243.214 90.2629C242.744 90.0614 242.239 89.9574 241.728 89.9574C241.218 89.9574 240.712 90.0614 240.243 90.2629C239.774 90.4645 239.351 90.7595 238.999 91.1299C238.648 91.5003 238.376 91.9384 238.199 92.4175C238.022 92.8966 237.945 93.4066 237.972 93.9165C237.956 94.7088 238.175 95.488 238.602 96.1558C239.029 96.8235 239.644 97.3498 240.369 97.6683C234.582 98.5364 234.84 104.82 234.84 104.82L248.524 104.882C248.524 104.882 248.844 98.4847 243.098 97.6269Z" fill="black"/>
<path d="M265.334 108.935L216.562 108.714L216.536 114.543L265.307 114.764L265.334 108.935Z" fill="#3979D9"/>
<path opacity="0.2" d="M265.334 108.935L216.562 108.714L216.536 114.543L265.307 114.764L265.334 108.935Z" fill="white"/>
<path d="M86.0328 139.144H85.547L84.1414 139.247C83.3808 139.293 82.6243 139.393 81.878 139.547C81.3946 139.615 80.9151 139.708 80.4414 139.826L78.8394 140.27C76.1128 141.107 73.5402 142.381 71.2223 144.043C68.1599 146.265 65.6027 149.112 63.7189 152.393C62.6117 154.285 61.7307 156.301 61.0938 158.398C60.4246 160.678 60.0392 163.032 59.9466 165.406C59.885 166.653 59.9057 167.903 60.0086 169.147C60.0086 169.777 60.1843 170.408 60.267 171.049C60.3365 171.695 60.4575 172.334 60.6287 172.961C61.5581 177.108 63.4438 180.981 66.1354 184.27C68.8271 187.559 72.2501 190.174 76.1316 191.905C78.9408 193.117 81.9518 193.794 85.0096 193.9C88.1678 194.074 91.3291 193.62 94.3113 192.567L95.2208 192.226H95.3448L95.4482 192.288L108.481 198.902L108.099 199.233C106.703 194.913 105.36 190.727 104.057 186.707V186.552L104.171 186.438C107.333 183.253 109.68 179.354 111.013 175.069C112.221 171.152 112.573 167.021 112.047 162.956C111.578 159.343 110.417 155.855 108.626 152.683C107.082 149.958 105.09 147.512 102.735 145.448C100.791 143.815 98.6398 142.445 96.337 141.376C94.5946 140.625 92.78 140.053 90.9214 139.671L88.8543 139.33L87.3557 139.216L86.4462 139.154H86.1361C86.2392 139.143 86.3431 139.143 86.4462 139.154H87.366L88.8646 139.216L90.9317 139.516C92.8134 139.87 94.6529 140.421 96.4197 141.159C98.762 142.216 100.952 143.582 102.931 145.221C105.33 147.276 107.364 149.722 108.946 152.455C110.788 155.662 111.985 159.197 112.47 162.863C113.041 166.991 112.713 171.193 111.509 175.183C110.167 179.556 107.784 183.539 104.564 186.789L104.626 186.521C105.928 190.541 107.282 194.727 108.688 199.037L108.884 199.667L108.295 199.367L95.2622 192.763H95.4895L94.5594 193.104C91.5197 194.174 88.2999 194.637 85.0819 194.468C81.9583 194.349 78.8843 193.648 76.0179 192.401C70.5502 190.06 66.0012 185.99 63.0678 180.815C61.7179 178.426 60.7321 175.848 60.1429 173.167C59.9816 172.524 59.8608 171.872 59.7812 171.214C59.6985 170.563 59.5642 169.922 59.5332 169.281C59.2534 165.604 59.6421 161.906 60.6804 158.367C61.3331 156.241 62.2388 154.201 63.3779 152.29C65.3066 148.978 67.917 146.114 71.0363 143.888C73.3924 142.222 76.0081 140.957 78.7774 140.146L80.4001 139.733C80.8776 139.622 81.3606 139.536 81.847 139.474C82.6011 139.335 83.3646 139.252 84.1311 139.226L85.547 139.175C85.708 139.153 85.8703 139.143 86.0328 139.144Z" fill="#3979D9"/>
<path d="M91.9238 163.245H90.0118L85.8777 157.437V153.623C85.8777 153.623 82.9218 153.437 83.2732 158.429C83.6246 163.421 83.2732 162.15 83.2732 162.15C83.2732 162.15 76.9997 162.15 76.483 162.718C75.9662 163.287 75.9352 169.343 75.8628 172.723C75.8232 173.538 76.057 174.342 76.527 175.009C76.997 175.675 77.6763 176.166 78.457 176.402C78.6758 176.463 78.9017 176.494 79.1288 176.495C80.6997 176.495 88.6889 175.224 88.6889 175.224H91.9858L91.9238 163.245Z" fill="#3979D9"/>
<path d="M97.3912 162.222L96.213 175.286H92.947V162.491L97.3912 162.222Z" fill="#3979D9"/>
<path d="M136.345 428.18V419.343L120.501 419.229L120.367 432.593L121.348 432.665C125.72 432.944 143.59 433.358 146.525 432.448C149.791 431.435 136.345 428.18 136.345 428.18Z" fill="#3979D9"/>
<path d="M146.897 431.621C146.897 431.766 140.965 431.89 133.658 431.89C126.351 431.89 120.418 431.766 120.418 431.621C120.418 431.477 126.351 431.353 133.658 431.353C140.965 431.353 146.897 431.477 146.897 431.621Z" fill="#263238"/>
<path d="M136.624 429.988C136.49 429.916 136.624 429.451 136.944 428.955C137.265 428.459 137.699 428.252 137.802 428.355C137.905 428.459 137.688 428.851 137.378 429.275C137.068 429.699 136.758 430.061 136.624 429.988Z" fill="#263238"/>
<path d="M137.637 430.567C137.492 430.567 137.564 429.988 137.875 429.441C138.185 428.893 138.598 428.562 138.712 428.645C138.825 428.727 138.639 429.192 138.35 429.678C138.061 430.164 137.771 430.619 137.637 430.567Z" fill="#263238"/>
<path d="M125.193 431.58C125.131 431.58 124.893 431.394 124.552 431.001C124.136 430.496 123.672 430.033 123.167 429.616C122.671 429.22 122.08 428.96 121.452 428.862C120.966 428.8 120.656 428.862 120.625 428.8C120.594 428.738 120.894 428.521 121.462 428.479C122.212 428.464 122.944 428.712 123.529 429.182C124.077 429.629 124.54 430.172 124.893 430.784C125.131 431.239 125.255 431.539 125.193 431.58Z" fill="#263238"/>
<path d="M136.676 428.324C136.748 428.448 136.479 428.758 136.024 428.924C135.57 429.089 135.167 429.027 135.146 428.924C135.125 428.82 135.446 428.603 135.838 428.459C136.231 428.314 136.593 428.2 136.676 428.324Z" fill="#263238"/>
<path d="M136.428 427.467C136.428 427.622 136.014 427.746 135.477 427.756C134.939 427.766 134.515 427.642 134.526 427.498C134.536 427.353 134.96 427.218 135.477 427.208C135.993 427.198 136.407 427.322 136.428 427.467Z" fill="#263238"/>
<path d="M175.361 428.18V419.343L159.517 419.229L159.382 432.458L160.364 432.531C164.736 432.81 182.616 433.358 185.541 432.448C188.807 431.435 175.361 428.18 175.361 428.18Z" fill="#3979D9"/>
<path d="M185.913 431.642C185.913 431.787 179.991 431.911 172.673 431.911C165.356 431.911 159.444 431.787 159.444 431.642C159.444 431.497 165.366 431.373 172.673 431.373C179.98 431.373 185.913 431.497 185.913 431.642Z" fill="#263238"/>
<path d="M175.64 429.988C175.515 429.916 175.64 429.451 175.96 428.955C176.28 428.459 176.714 428.252 176.818 428.355C176.921 428.459 176.704 428.851 176.394 429.275C176.084 429.699 175.774 430.061 175.64 429.988Z" fill="#263238"/>
<path d="M176.652 430.567C176.518 430.567 176.58 429.988 176.9 429.441C177.221 428.893 177.624 428.562 177.738 428.645C177.851 428.727 177.655 429.192 177.365 429.678C177.076 430.164 176.797 430.619 176.652 430.567Z" fill="#263238"/>
<path d="M164.209 431.58C164.147 431.58 163.919 431.394 163.568 431.001C163.152 430.496 162.688 430.033 162.183 429.616C161.687 429.22 161.095 428.96 160.467 428.862C159.992 428.8 159.671 428.862 159.64 428.8C159.609 428.738 159.909 428.521 160.478 428.479C161.228 428.464 161.96 428.712 162.545 429.182C163.096 429.626 163.558 430.169 163.909 430.784C164.147 431.239 164.271 431.539 164.209 431.58Z" fill="#263238"/>
<path d="M175.691 428.324C175.764 428.448 175.495 428.758 175.04 428.924C174.585 429.089 174.182 429.027 174.162 428.924C174.141 428.82 174.461 428.603 174.854 428.459C175.247 428.314 175.609 428.2 175.691 428.324Z" fill="#263238"/>
<path d="M175.464 427.467C175.464 427.622 175.05 427.746 174.513 427.756C173.976 427.766 173.562 427.642 173.572 427.498C173.583 427.353 173.996 427.218 174.513 427.208C175.03 427.198 175.464 427.322 175.464 427.467Z" fill="#263238"/>
<path d="M233.734 165.767C233.321 165.344 232.297 165.55 232.297 165.55C232.4 164.955 232.4 164.347 232.297 163.752C232.111 163.173 230.809 163.287 230.809 163.287C230.749 162.799 230.749 162.307 230.809 161.819C230.82 161.711 230.796 161.603 230.743 161.508C230.689 161.414 230.608 161.338 230.509 161.292C229.893 161.041 229.232 160.921 228.566 160.941C227.771 160.372 230.995 155.856 232.194 154.409C233.393 152.962 233.176 151.835 232.111 151.835C231.378 151.835 227.616 156.176 226.458 157.633C225.3 159.091 222.231 163.142 222.128 159.907C222.024 156.672 220.722 154.233 219.905 153.82C219.089 153.406 218.221 154.378 218.665 155.277C219.056 156.299 219.299 157.37 219.389 158.46C219.501 159.329 219.463 160.21 219.275 161.065C218.932 162.656 218.466 164.218 217.88 165.736H217.797C217.797 165.736 195.246 187.368 193.613 188.908C192.155 190.293 162.844 187.265 156.964 186.645C154.965 186.352 152.947 186.214 150.928 186.231C148.375 186.345 147.92 186.707 145.378 186.738C138.957 186.809 132.551 187.372 126.216 188.422C123.348 188.91 120.669 190.176 118.47 192.082C116.272 193.989 114.64 196.462 113.752 199.233C107.83 217.733 94.4147 261.524 92.0479 286.121C90.2594 289.365 88.6449 292.701 87.211 296.116C85.547 300.643 85.9501 300.798 86.5082 300.901C88.0172 301.18 89.7328 293.056 90.3736 295.02C91.0144 296.984 87.118 304.704 88.6993 304.932C90.7663 305.221 92.4096 296.663 92.606 295.981C92.8024 295.299 93.8256 295.516 93.6395 296.157C93.3398 297.067 90.4356 306.709 92.4613 307.019C93.5775 307.185 93.7016 305.149 93.7016 305.149C93.7016 305.149 95.7686 295.919 96.7091 296.105C97.6496 296.291 96.6471 301.738 96.1717 303.557C95.6963 305.376 96.3577 306.296 97.3292 305.851C97.9907 305.541 99.572 300.012 100.006 298.214C100.44 296.415 101.525 291.434 102.983 294.317C104.44 297.201 106.652 298.875 107.561 298.917C107.766 298.893 107.959 298.808 108.116 298.674C108.272 298.54 108.385 298.362 108.44 298.163C108.494 297.964 108.488 297.753 108.421 297.558C108.355 297.362 108.232 297.191 108.068 297.067C107.285 296.303 106.614 295.433 106.073 294.483C105.591 293.743 105.241 292.924 105.039 292.064C104.623 290.35 104.38 288.598 104.316 286.835L104.151 285.801C106.466 274.339 113.132 240.698 122.754 219.211L126.702 227.334L128.418 233.35L117.896 259.322L162.772 258.733L156.075 232.957L164.209 206.085C173.004 206.282 195.587 206.612 199.349 204.907C204.082 202.84 228.566 171.917 228.566 171.917C230.162 170.677 231.691 169.352 233.145 167.948C233.145 167.948 234.633 166.697 233.734 165.767Z" fill="#FFBE9D"/>
<path d="M115.922 240.13C117.225 235.685 123.912 213.713 123.912 213.713C123.912 213.713 127.198 231.624 126.33 233.784C125.531 235.633 124.588 237.416 123.508 239.117C115.922 250.661 116.915 256.439 116.915 256.439L162.751 255.043C162.855 248.635 159.062 233.732 158.276 231.355C157.491 228.978 160.106 221.195 160.106 221.195C160.106 221.195 165.273 215.935 165.087 213.227C164.989 210.794 164.688 208.375 164.188 205.992L192.093 207.026L191.215 188.112L151.135 184.102C149.739 188.04 137.12 186.107 137.12 186.107C123.498 186.562 122.651 189.063 116.987 193.466C111.323 197.869 101.949 235.654 101.949 235.654L115.922 240.13Z" fill="#3979D9"/>
<path d="M143.021 235.654C142.227 235.796 141.418 235.838 140.613 235.778C139.115 235.778 137.058 235.675 134.795 235.448C132.531 235.22 130.485 234.9 129.028 234.61C128.224 234.507 127.436 234.306 126.681 234.011C127.489 234.011 128.296 234.088 129.09 234.238C130.557 234.424 132.593 234.683 134.846 234.91C137.099 235.138 139.146 235.293 140.624 235.396C141.429 235.406 142.232 235.493 143.021 235.654Z" fill="#263238"/>
<path d="M146.163 231.758C145.369 232.147 144.529 232.435 143.662 232.616C139.539 233.699 135.285 234.204 131.022 234.114C130.14 234.143 129.258 234.06 128.397 233.866C129.268 233.756 130.145 233.712 131.022 233.732C132.645 233.68 134.877 233.567 137.337 233.277C139.797 232.988 141.988 232.574 143.538 232.244C144.399 232.014 145.277 231.851 146.163 231.758Z" fill="#263238"/>
<path d="M161.584 214.374C161.563 215.162 161.455 215.945 161.263 216.71C160.994 218.146 160.581 220.11 160.054 222.26C159.527 224.41 159.02 226.394 158.566 227.738C158.383 228.507 158.112 229.252 157.76 229.96C157.817 229.174 157.963 228.398 158.194 227.645C158.586 226.032 159.031 224.172 159.527 222.136C160.023 220.1 160.498 218.239 160.891 216.627C161.031 215.851 161.263 215.095 161.584 214.374Z" fill="#263238"/>
<path d="M116.408 237.494C114.017 237.125 111.657 236.575 109.349 235.851C106.991 235.299 104.676 234.574 102.425 233.68C104.814 234.056 107.174 234.605 109.484 235.324C111.843 235.873 114.157 236.599 116.408 237.494Z" fill="#263238"/>
<path d="M164.684 205.765C164.294 205.832 163.896 205.832 163.506 205.765C162.426 205.654 161.366 205.4 160.354 205.01C158.663 204.375 157.124 203.393 155.835 202.127C154.546 200.862 153.537 199.341 152.871 197.662C152.135 195.815 151.821 193.827 151.951 191.843C151.997 190.207 152.487 188.614 153.367 187.234C153.986 186.304 154.911 185.62 155.982 185.301C156.268 185.222 156.564 185.184 156.86 185.187C157.067 185.187 157.17 185.187 157.17 185.187C157.17 185.187 156.736 185.187 156.044 185.466C155.062 185.829 154.229 186.509 153.677 187.399C152.272 189.611 151.879 193.652 153.377 197.424C154.075 199.203 155.167 200.8 156.571 202.096C157.722 203.156 159.047 204.009 160.488 204.618C161.841 205.152 163.248 205.537 164.684 205.765Z" fill="#263238"/>
<path d="M188.776 206.654C188.517 203.484 188.434 200.303 188.528 197.124C188.447 193.949 188.543 190.771 188.817 187.606C189.076 190.772 189.158 193.949 189.065 197.124C189.152 200.304 189.055 203.485 188.776 206.654Z" fill="#263238"/>
<path d="M150.866 185.26C150.98 182.955 151.217 180.35 151.217 180.35C151.217 180.35 156.922 179.72 157.263 173.829C157.605 167.938 157.263 154.347 157.263 154.347L146.928 149.055L135.456 158.078L137.223 187.533L147.745 188.205C148.549 188.227 149.329 187.93 149.914 187.378C150.499 186.825 150.842 186.064 150.866 185.26Z" fill="#FFBE9D"/>
<path d="M151.889 169.168C151.889 169.168 151.889 169.281 151.796 169.416C151.719 169.513 151.62 169.59 151.506 169.641C151.393 169.691 151.269 169.713 151.145 169.705C150.484 169.705 149.843 168.94 149.615 168.051C149.507 167.621 149.507 167.17 149.615 166.739C149.637 166.551 149.704 166.371 149.813 166.216C149.921 166.061 150.066 165.935 150.235 165.85C150.374 165.793 150.531 165.793 150.67 165.85C150.773 165.901 150.856 165.985 150.907 166.088C150.98 166.263 150.907 166.377 150.907 166.367C150.907 166.356 150.907 166.263 150.804 166.16C150.75 166.086 150.67 166.035 150.581 166.015C150.491 165.996 150.398 166.011 150.318 166.057C150.191 166.133 150.086 166.241 150.012 166.369C149.938 166.497 149.897 166.642 149.894 166.79C149.807 167.175 149.807 167.574 149.894 167.958C150.101 168.765 150.659 169.416 151.155 169.478C151.252 169.491 151.351 169.484 151.445 169.457C151.54 169.431 151.627 169.385 151.703 169.323C151.827 169.24 151.868 169.157 151.889 169.168Z" fill="#EB996E"/>
<path d="M160.808 151.164C160.013 148.456 157.129 147.112 154.504 146.368C150.504 145.231 146.184 144.735 142.277 146.172C138.371 147.608 133.678 150.13 133.678 154.44C131.374 154.254 130.051 156.269 129.141 158.77C128.56 160.294 128.211 161.897 128.108 163.525C127.818 169.168 126.237 176.96 122.578 181.095C120.511 183.399 117.648 184.991 116.47 187.864C115.437 190.355 115.974 193.311 115.013 195.833C114.155 198.055 112.264 199.636 110.879 201.569C109.468 203.761 108.637 206.276 108.466 208.878C108.294 211.48 108.786 214.082 109.897 216.441C111.015 218.74 112.59 220.786 114.525 222.457C116.46 224.127 118.715 225.386 121.152 226.156C125.98 227.625 131.128 227.675 135.983 226.301C139.627 225.43 143.026 223.744 145.926 221.371C148.892 218.948 150.93 215.575 151.693 211.821C152.426 207.604 151.248 203.315 150.37 199.119C147.621 185.859 148.406 185.167 151.879 172.857C151.961 172.64 152.003 172.413 152.065 172.196C152.127 171.979 152.158 171.875 152.199 171.71C152.298 171.224 152.35 170.729 152.354 170.232C151.847 170.421 151.296 170.461 150.767 170.347C150.238 170.234 149.752 169.971 149.367 169.591C148.981 169.186 148.712 168.684 148.588 168.138C148.464 167.592 148.491 167.023 148.664 166.491C148.908 165.909 149.272 165.385 149.731 164.952C150.19 164.519 150.735 164.188 151.331 163.979C152.478 163.504 153.708 163.256 154.835 162.729C157.222 161.592 158.876 159.235 160.002 156.765C160.928 155.053 161.214 153.067 160.808 151.164Z" fill="#263238"/>
<path d="M152.302 169.447C152.521 169.769 152.701 170.116 152.84 170.48C153.15 171.131 153.563 172.051 154.018 173.116L154.101 173.312H153.884L152.85 173.405C152.137 173.405 151.538 173.539 150.835 173.529C150.774 173.515 150.717 173.486 150.67 173.445C150.623 173.403 150.587 173.35 150.566 173.291C150.535 173.197 150.535 173.096 150.566 173.002C150.59 172.863 150.621 172.725 150.659 172.589L150.845 171.855C150.939 171.365 151.084 170.887 151.279 170.429C151.26 170.928 151.187 171.423 151.062 171.906L150.918 172.64C150.866 172.888 150.773 173.271 150.918 173.24C151.434 173.24 152.168 173.126 152.85 173.085L153.884 172.992L153.749 173.219C153.305 172.186 152.933 171.214 152.716 170.542C152.526 170.199 152.386 169.83 152.302 169.447Z" fill="#3979D9"/>
<path d="M116.915 256.439L162.751 255.043L182.699 332.909L179.03 422.227H154.793L157.76 334.811L140.035 280.602L142.763 425.689L118.269 426.051L115.695 289.677C115.581 285.884 114.341 277.336 114.806 273.574L116.915 256.439Z" fill="#263238"/>
<path d="M146.132 281.708C145.382 281.756 144.629 281.71 143.89 281.574C142.505 281.409 140.613 281.119 138.536 280.706C136.459 280.292 134.598 279.817 133.255 279.435C132.536 279.277 131.842 279.027 131.188 278.69C131.188 278.535 134.557 279.342 138.691 280.179C142.825 281.016 146.153 281.553 146.132 281.708Z" fill="#455A64"/>
<path d="M178.781 417.328C178.781 417.472 173.293 417.596 166.524 417.596C159.754 417.596 154.256 417.472 154.256 417.328C154.256 417.183 159.744 417.059 166.524 417.059C173.304 417.059 178.781 417.173 178.781 417.328Z" fill="#455A64"/>
<path d="M142.546 421.916C142.546 422.071 137.213 422.185 130.64 422.185C124.067 422.185 118.744 422.071 118.744 421.916C118.744 421.761 124.077 421.648 130.64 421.648C137.203 421.648 142.546 421.772 142.546 421.916Z" fill="#455A64"/>
<path d="M139.383 421.544C139.239 421.544 138.598 389.846 137.947 350.748C137.296 311.65 136.913 279.931 137.048 279.931C137.182 279.931 137.843 311.619 138.484 350.738C139.125 389.857 139.538 421.544 139.383 421.544Z" fill="#455A64"/>
<path d="M175.526 417.328C175.515 417.187 175.515 417.045 175.526 416.904V415.664C175.526 414.547 175.609 412.946 175.671 410.909C175.815 406.775 176.022 400.771 176.28 393.412C176.838 378.612 177.624 358.21 178.482 335.689C178.482 335.472 178.482 335.266 178.482 335.08V335.152C173.056 313.448 168.146 293.749 164.581 279.497L160.447 262.64C159.971 260.666 159.61 259.126 159.351 258.051C159.227 257.544 159.144 257.152 159.072 256.852C159.032 256.718 159.008 256.579 159 256.439C159.053 256.569 159.095 256.704 159.124 256.842C159.206 257.131 159.31 257.524 159.454 258.02C159.734 259.053 160.137 260.624 160.653 262.588C161.687 266.577 163.144 272.324 164.963 279.404C168.56 293.646 173.521 313.293 179.019 335.028V335.1C179.019 335.286 179.019 335.503 179.019 335.71C178.099 358.231 177.262 378.622 176.652 393.422C176.332 400.791 176.063 406.755 175.877 410.909C175.774 412.977 175.691 414.547 175.64 415.664C175.64 416.191 175.578 416.604 175.567 416.904C175.569 417.046 175.555 417.188 175.526 417.328Z" fill="#455A64"/>
<path d="M167.619 333.261C165.879 333.833 164.085 334.231 162.266 334.449C160.033 334.832 158.132 335.1 157.274 335.142V334.935C157.553 335.018 157.698 335.069 157.698 335.111C157.698 335.152 157.522 335.111 157.232 335.111H156.612L157.232 334.925C158.039 334.687 159.94 334.294 162.173 333.891C163.963 333.503 165.788 333.291 167.619 333.261Z" fill="#455A64"/>
<path d="M167.196 336.227C165.583 336.301 163.968 336.228 162.369 336.01C160.755 335.977 159.146 335.8 157.563 335.483C160.793 335.219 164.044 335.47 167.196 336.227Z" fill="#455A64"/>
<path opacity="0.2" d="M116.718 258.082C117.261 258.779 117.945 259.354 118.725 259.769C119.505 260.184 120.364 260.429 121.245 260.49C123.091 260.709 124.958 260.674 126.795 260.387C138.629 259.074 151.166 257.865 162.751 255.043C147.755 255.88 131.911 255.601 116.915 256.439L116.759 257.72" fill="black"/>
<g opacity="0.2">
<path d="M132.169 279.217L140.624 312.022L140.035 280.602L132.169 279.217Z" fill="black"/>
</g>
</svg>
